<svg xmlns="http://www.w3.org/2000/svg" xmlns:xlink="http://www.w3.org/1999/xlink" viewBox="202.849 1186.333 120.151 51.528"><defs><style>.a{fill:none;}.b{fill:#e6e4e3;}.c{clip-path:url(#a);}.d{fill:#fff;}</style><clipPath id="a"><path class="a" d="M0-54H120.151V-2.472H0Z" transform="translate(0 54)"/></clipPath></defs><g transform="translate(-4 1176)"><path class="b" d="M66.222-2.053h.7V-24h-.7Z" transform="translate(203.818 62.96)"/><g class="c" transform="translate(206.849 10.333)"><g transform="translate(1.809 0.363)"><path class="d" d="M-.811-.267H-10.865V5.392H-.811A2.355,2.355,0,0,0,1.1,4.724,3.849,3.849,0,0,0,1.65,2.345,2.837,2.837,0,0,0,1.065.356,2.478,2.478,0,0,0-.811-.267m.24-5.567a23.917,23.917,0,0,1,3.638.219,7.493,7.493,0,0,1,2.3.712A5.285,5.285,0,0,1,7.834-2.271,12.328,12.328,0,0,1,8.6,2.555q0,4.593-1.53,6.492t-5.178,1.9H-10.865v5.569h-6.844V-5.834Z" transform="translate(17.709 5.834)"/></g><g transform="translate(32.358 0.417)"><path class="d" d="M-.849-.267H-11.7V5.2H-.849a2.422,2.422,0,0,0,1.913-.637,3.62,3.62,0,0,0,.548-2.3A2.672,2.672,0,0,0,1.027.334a2.528,2.528,0,0,0-1.876-.6m.256-5.568q5.312,0,7.233,1.576T8.56,1.49A8.5,8.5,0,0,1,7.705,5.8a4.333,4.333,0,0,1-2.867,1.89A4.755,4.755,0,0,1,7.5,9.173a4.18,4.18,0,0,1,.886,2.761v4.577H1.553V13.1a2.212,2.212,0,0,0-.624-1.816,4.224,4.224,0,0,0-2.453-.5H-11.7v5.718h-6.843V-5.835Z" transform="translate(18.542 5.835)"/></g><g transform="translate(93.844 0.418)"><path class="d" d="M-.811-.267H-10.865V5.391H-.811A2.358,2.358,0,0,0,1.1,4.723,3.849,3.849,0,0,0,1.65,2.344,2.838,2.838,0,0,0,1.065.355,2.474,2.474,0,0,0-.811-.267m.24-5.568a24.062,24.062,0,0,1,3.638.218,7.492,7.492,0,0,1,2.3.714A5.277,5.277,0,0,1,7.834-2.271,12.316,12.316,0,0,1,8.6,2.555q0,4.59-1.53,6.49t-5.178,1.9H-10.865V16.51h-6.844V-5.835Z" transform="translate(17.709 5.835)"/></g><g transform="translate(4.543 32.401)"><path class="d" d="M0-.69v-2q7.147-4.967,7.147-8.2,0-1.9-2.6-1.9A8.311,8.311,0,0,0,.4-11.686v-2.4a8.964,8.964,0,0,1,4.149-1q5.247,0,5.247,4.2,0,3.7-5.727,7.9H9.8v2.3Z" transform="translate(0 15.084)"/></g><g transform="translate(20.183 32.401)"><path class="d" d="M-.306-.585q3.52,0,3.519-4.988,0-4.908-3.519-4.909-3.628,0-3.629,4.909,0,4.988,3.629,4.988M-6.683-5.513q0-7.267,6.377-7.266,6.268,0,6.267,7.266,0,7.227-6.267,7.227-6.377,0-6.377-7.227" transform="translate(6.683 12.779)"/></g><g transform="translate(38.273 32.501)"><path class="d" d="M-.072-.686v-11.8h-1.5v-1.091l4.147-1.4V-.686Z" transform="translate(1.571 14.979)"/></g><g transform="translate(48.214 32.36)"><path class="d" d="M-.391-.19q0-1.619-2.529-1.619-2.569,0-2.57,1.619,0,1.879,2.6,1.88,2.5,0,2.5-1.88m.4,6.3q0-2.12-2.929-2.119-2.97,0-2.97,2.119,0,1.978,3.1,1.979,2.8,0,2.8-1.979m-8.546-.06A3.509,3.509,0,0,1-6.418,2.74,3.384,3.384,0,0,1-8.137-.489q0-3.657,5.2-3.659t5.2,3.659A3.365,3.365,0,0,1,.489,2.74,3.5,3.5,0,0,1,2.658,6.048q0,4.338-5.5,4.339-5.7,0-5.7-4.339" transform="translate(8.537 4.148)"/></g><g transform="translate(70.613 33.78)"><path class="d" d="M-.172-.579H-3.758V-12.656H1.685L5.992-5.113l4.38-7.543h5.37V-.579H12.174V-9.185L7.185-.579H4.776L-.172-9.185Z" transform="translate(3.758 12.656)"/></g><g transform="translate(94.749 33.78)"><path class="d" d="M0-.579,5.945-6.711l-5.5-5.945H5.053L8.809-8.422,12.6-12.656h4.445L11.712-6.711l5.8,6.132H12.759L8.809-4.813,4.8-.579Z" transform="translate(0 12.656)"/></g><path class="d" d="M119.5-24.046H0V-25H119.5Z" transform="translate(0 52.673)"/><path class="d" d="M119.5-.046H0V-1H119.5Z" transform="translate(0 51.574)"/><path class="d" d="M88.169-47.32H66.222V-54H88.169Z" transform="translate(-3.031 54)"/><path class="d" d="M82.45-39.193H66.228v-5.725H82.45Z" transform="translate(-3.031 53.584)"/><path class="d" d="M91.986-30.32H66.222V-37H91.986Z" transform="translate(-3.031 53.222)"/></g></g></svg>