<svg xmlns="http://www.w3.org/2000/svg" xmlns:xlink="http://www.w3.org/1999/xlink" viewBox="830 121.229 260.086 111.542"><defs><style>.a{fill:none;}.b{fill:#e6e4e3;}.c{clip-path:url(#a);}.d{fill:#010001;}.e{fill:#b5007a;}.f{fill:#4e4e4e;}.g{fill:#979799;}.h{fill:#711455;}</style><clipPath id="a"><path class="a" d="M0-54H260.086V57.542H0Z" transform="translate(0 54)"/></clipPath></defs><path class="b" d="M66.222,23.508H188.089V-24H66.222Z" transform="translate(900.565 207.197)"/><g class="c" transform="translate(830 121.229)"><g transform="translate(3.915 0.788)"><path class="d" d="M18.87,6.217H-2.895V18.463H18.87q2.956,0,4.141-1.446T24.2,11.87a6.14,6.14,0,0,0-1.266-4.3A5.355,5.355,0,0,0,18.87,6.217m.521-12.051a52.086,52.086,0,0,1,7.876.471A16.163,16.163,0,0,1,32.253-3.82a11.424,11.424,0,0,1,5.329,5.7q1.658,3.786,1.655,10.446,0,9.94-3.311,14.05T24.718,30.483H-2.895V42.536H-17.709V-5.834Z" transform="translate(17.709 5.834)"/></g><g transform="translate(70.044 0.906)"><path class="d" d="M19.758,6.217H-3.73V18.042H19.758q2.956,0,4.141-1.38t1.186-4.988a5.793,5.793,0,0,0-1.266-4.158,5.481,5.481,0,0,0-4.061-1.3m.554-12.051q11.5,0,15.657,3.41t4.156,12.441q0,6.271-1.851,9.324a9.38,9.38,0,0,1-6.205,4.092,10.294,10.294,0,0,1,5.751,3.218,9.046,9.046,0,0,1,1.917,5.976v9.909H24.957V35.162q0-2.86-1.351-3.931T18.3,30.159H-3.73V42.536H-18.542V-5.834Z" transform="translate(18.542 5.834)"/></g><g transform="translate(203.139 0.907)"><path class="d" d="M18.87,6.217H-2.895V18.463H18.87q2.956,0,4.141-1.446T24.2,11.87a6.14,6.14,0,0,0-1.266-4.3A5.355,5.355,0,0,0,18.87,6.217m.521-12.051a52.086,52.086,0,0,1,7.876.471A16.163,16.163,0,0,1,32.253-3.82a11.424,11.424,0,0,1,5.329,5.7q1.658,3.786,1.655,10.446,0,9.94-3.311,14.05T24.718,30.483H-2.895V42.536H-17.709V-5.834Z" transform="translate(17.709 5.834)"/></g><g transform="translate(9.834 70.137)"><path class="e" d="M0,16.073V11.746Q15.47.995,15.471-6q0-4.112-5.625-4.113A17.991,17.991,0,0,0,.865-7.728v-5.193a19.4,19.4,0,0,1,8.981-2.163q11.359,0,11.359,9.087,0,8.006-12.4,17.1h12.4v4.974Z" transform="translate(0 15.084)"/></g><g transform="translate(43.689 70.138)"><path class="e" d="M7.121,13.617q7.619,0,7.618-10.8,0-10.624-7.618-10.625Q-.733-7.805-.734,2.82q0,10.8,7.855,10.8M-6.683,2.95q0-15.73,13.8-15.729,13.568,0,13.567,15.729,0,15.644-13.567,15.645-13.8,0-13.8-15.645" transform="translate(6.683 12.779)"/></g><g transform="translate(82.848 70.354)"><path class="e" d="M1.674,15.961V-9.592H-1.571v-2.361l8.977-3.026v30.94Z" transform="translate(1.571 14.979)"/></g><g transform="translate(104.367 70.049)"><path class="e" d="M9.1,4.42Q9.1.916,3.623.915-1.938.915-1.94,4.42q0,4.068,5.629,4.069Q9.1,8.489,9.1,4.42m.865,13.633q0-4.589-6.339-4.588-6.429,0-6.428,4.588,0,4.282,6.709,4.284,6.057,0,6.058-4.284m-18.5-.13a7.6,7.6,0,0,1,4.588-7.161Q-7.674,8.7-7.672,3.771q0-7.916,11.251-7.919T14.831,3.771q0,4.933-3.83,6.99,4.7,2.336,4.7,7.161,0,9.391-11.9,9.392-12.335,0-12.334-9.392" transform="translate(8.537 4.148)"/></g><g transform="translate(152.853 73.123)"><path class="f" d="M4,13.486H-3.758V-12.656H8.024L17.348,3.672l9.481-16.328H38.454V13.486H30.729V-5.143l-10.8,18.63H14.715L4-5.143Z" transform="translate(3.758 12.656)"/></g><g transform="translate(205.1 73.123)"><path class="f" d="M0,13.486,12.869.213.965-12.656h9.973l8.13,9.165,8.2-9.165h9.621L25.353.213,37.908,13.486H27.619L19.067,4.321l-8.673,9.165Z" transform="translate(0 12.656)"/></g><path class="g" d="M258.669-22.934H0V-25H258.669Z" transform="translate(0 84.902)"/><path class="g" d="M258.669,1.066H0V-1H258.669Z" transform="translate(0 110.476)"/><path class="e" d="M113.73-39.541H66.222V-54H113.73Z" transform="translate(70.565 54)"/><path class="h" d="M101.343-32.525H66.228V-44.918h35.115Z" transform="translate(70.572 63.678)"/><path class="e" d="M121.993-22.541H66.222V-37h55.771Z" transform="translate(70.565 72.115)"/></g></svg>