<?xml version="1.0" encoding="utf-8"?>
<!-- Generator: Adobe Illustrator 22.0.1, SVG Export Plug-In . SVG Version: 6.00 Build 0)  -->
<svg version="1.1" xmlns="http://www.w3.org/2000/svg" xmlns:xlink="http://www.w3.org/1999/xlink" x="0px" y="0px"
	 viewBox="0 0 847.4 70" style="enable-background:new 0 0 847.4 70;" xml:space="preserve">
<style type="text/css">
	.st0{display:none;}
	.st1{display:inline;}
	.st2{fill:#FFFFFF;}
	.st3{fill:#363636;}
</style>
<g id="Capa_1" class="st0">
	<g class="st1">
		<g>
			<path class="st2" d="M8.7,40.2c0.3,2,0.8,3.5,1.7,4.4c1.5,1.8,4.1,2.7,7.7,2.7c2.2,0,4-0.2,5.3-0.7c2.6-0.9,3.9-2.6,3.9-5
				c0-1.4-0.6-2.5-1.9-3.3c-1.3-0.8-3.3-1.4-6-2l-4.7-1c-4.6-1-7.8-2.1-9.5-3.3c-2.9-2-4.4-5.1-4.4-9.4c0-3.9,1.4-7.1,4.3-9.7
				c2.9-2.6,7.1-3.9,12.6-3.9c4.6,0,8.6,1.2,11.9,3.6c3.3,2.4,5,5.9,5.1,10.6h-8.7c-0.2-2.6-1.3-4.5-3.5-5.6
				c-1.5-0.7-3.3-1.1-5.4-1.1c-2.4,0-4.3,0.5-5.7,1.4s-2.1,2.3-2.1,3.9c0,1.6,0.7,2.7,2.1,3.5c0.9,0.5,2.8,1.1,5.8,1.8l7.6,1.8
				c3.3,0.8,5.8,1.8,7.5,3.2c2.6,2,3.9,5,3.9,8.9c0,4-1.5,7.3-4.6,9.9c-3.1,2.6-7.4,3.9-13,3.9c-5.7,0-10.2-1.3-13.5-3.9
				S0,44.7,0,40.2H8.7z"/>
			<path class="st2" d="M50.4,40.2c0.3,2,0.8,3.5,1.7,4.4c1.5,1.8,4.1,2.7,7.7,2.7c2.2,0,4-0.2,5.3-0.7c2.6-0.9,3.9-2.6,3.9-5
				c0-1.4-0.6-2.5-1.9-3.3c-1.3-0.8-3.3-1.4-6-2l-4.7-1c-4.6-1-7.8-2.1-9.5-3.3c-2.9-2-4.4-5.1-4.4-9.4c0-3.9,1.4-7.1,4.3-9.7
				c2.9-2.6,7.1-3.9,12.6-3.9c4.6,0,8.6,1.2,11.9,3.6c3.3,2.4,5,5.9,5.1,10.6h-8.7c-0.2-2.6-1.3-4.5-3.5-5.6
				c-1.5-0.7-3.3-1.1-5.4-1.1c-2.4,0-4.3,0.5-5.7,1.4s-2.1,2.3-2.1,3.9c0,1.6,0.7,2.7,2.1,3.5c0.9,0.5,2.8,1.1,5.8,1.8l7.6,1.8
				c3.3,0.8,5.8,1.8,7.5,3.2c2.6,2,3.9,5,3.9,8.9c0,4-1.5,7.3-4.6,9.9c-3.1,2.6-7.4,3.9-13,3.9c-5.7,0-10.2-1.3-13.5-3.9
				s-4.9-6.1-4.9-10.6H50.4z"/>
			<path class="st2" d="M93.9,53.6h-9V10.2h9V53.6z"/>
			<path class="st2" d="M137.3,49.7c-3.3,3.4-8,5.1-14.2,5.1c-6.2,0-10.9-1.7-14.2-5.1c-4.4-4.1-6.6-10.1-6.6-17.9
				c0-8,2.2-13.9,6.6-17.9c3.3-3.4,8-5.1,14.2-5.1c6.2,0,10.9,1.7,14.2,5.1c4.4,4,6.6,10,6.6,17.9C143.9,39.6,141.7,45.6,137.3,49.7
				z M131.6,43.2c2.1-2.7,3.2-6.4,3.2-11.3c0-4.9-1.1-8.6-3.2-11.3s-5-4-8.6-4s-6.5,1.3-8.6,4c-2.1,2.7-3.2,6.4-3.2,11.3
				c0,4.9,1.1,8.7,3.2,11.3c2.1,2.7,5,4,8.6,4S129.5,45.8,131.6,43.2z"/>
			<path class="st2" d="M156.5,14.7c3.5-3.6,7.9-5.4,13.3-5.4c7.2,0,12.5,2.4,15.9,7.2c1.8,2.7,2.8,5.4,3,8.1h-9.1
				c-0.6-2.1-1.3-3.7-2.2-4.7c-1.6-1.9-4-2.8-7.2-2.8c-3.2,0-5.8,1.3-7.6,4s-2.8,6.4-2.8,11.3s1,8.5,3,10.9c2,2.4,4.5,3.6,7.5,3.6
				c3.1,0,5.5-1,7.1-3.1c0.9-1.1,1.7-2.8,2.2-5h9c-0.8,4.7-2.8,8.6-6,11.5c-3.2,3-7.3,4.4-12.3,4.4c-6.2,0-11-2-14.6-6
				c-3.5-4-5.3-9.5-5.3-16.6C150.4,24.7,152.4,18.8,156.5,14.7z"/>
		</g>
		<g>
			<path class="st2" d="M254.1,17.2c0.1,1.4,0.4,2.5,0.9,3.4c1.1,1.6,2.9,2.4,5.6,2.4c1.2,0,2.3-0.2,3.3-0.5
				c1.9-0.7,2.9-1.9,2.9-3.7c0-1.3-0.4-2.3-1.2-2.9c-0.8-0.6-2.1-1-3.8-1.5l-3.2-0.8c-2.1-0.5-3.6-1-4.5-1.6c-1.5-1-2.3-2.6-2.3-4.6
				c0-2.2,0.7-4,2.2-5.4c1.5-1.4,3.6-2.1,6.3-2.1c2.5,0,4.6,0.6,6.4,1.9c1.7,1.2,2.6,3.2,2.6,5.9h-3.1c-0.2-1.3-0.5-2.3-1-3
				c-1-1.3-2.6-1.9-4.9-1.9c-1.9,0-3.2,0.4-4,1.2c-0.8,0.8-1.2,1.8-1.2,2.9c0,1.2,0.5,2.1,1.5,2.6c0.6,0.4,2.1,0.8,4.3,1.3l3.3,0.8
				c1.6,0.4,2.8,0.9,3.7,1.6c1.5,1.1,2.3,2.8,2.3,5c0,2.7-1,4.7-2.9,5.8c-1.9,1.2-4.2,1.8-6.7,1.8c-3,0-5.3-0.8-7-2.3
				c-1.7-1.5-2.5-3.6-2.5-6.3H254.1z"/>
			<path class="st2" d="M274.6,0.6h3.1V4h-3.1V0.6z M274.6,7.4h3.1v17.8h-3.1V7.4z"/>
			<path class="st2" d="M284.3,19.5c0.1,1,0.3,1.8,0.8,2.3c0.8,1,2.1,1.5,4,1.5c1.1,0,2.1-0.2,3-0.7s1.3-1.2,1.3-2.2
				c0-0.8-0.3-1.4-1-1.8c-0.4-0.2-1.3-0.5-2.6-0.9l-2.4-0.6c-1.5-0.4-2.7-0.8-3.4-1.3c-1.3-0.8-2-1.9-2-3.4c0-1.7,0.6-3.1,1.9-4.1
				c1.2-1,2.9-1.6,5-1.6c2.7,0,4.7,0.8,5.9,2.4c0.8,1,1.1,2.1,1.1,3.2h-2.8c-0.1-0.7-0.3-1.3-0.7-1.8c-0.7-0.8-1.9-1.2-3.7-1.2
				c-1.2,0-2,0.2-2.6,0.6s-0.9,1-0.9,1.7c0,0.8,0.4,1.4,1.2,1.9c0.5,0.3,1.1,0.5,2,0.7l2,0.5c2.2,0.5,3.7,1,4.4,1.5
				c1.2,0.8,1.8,2,1.8,3.6c0,1.6-0.6,3-1.8,4.1c-1.2,1.2-3.1,1.7-5.6,1.7c-2.7,0-4.6-0.6-5.7-1.8c-1.1-1.2-1.7-2.7-1.8-4.5H284.3z"
				/>
			<path class="st2" d="M300.5,2.3h3v5h2.9v2.5h-2.9v11.7c0,0.6,0.2,1,0.6,1.3c0.2,0.1,0.6,0.2,1.2,0.2c0.1,0,0.3,0,0.5,0
				c0.2,0,0.4,0,0.6-0.1v2.4c-0.3,0.1-0.7,0.2-1.1,0.2c-0.4,0-0.8,0.1-1.2,0.1c-1.4,0-2.4-0.4-2.9-1.1c-0.5-0.7-0.8-1.6-0.8-2.8V9.7
				h-2.4V7.3h2.4V2.3z"/>
			<path class="st2" d="M320.8,7.8c1.2,0.6,2.1,1.4,2.7,2.3c0.6,0.9,1,2,1.2,3.2c0.2,0.8,0.3,2.1,0.3,3.9h-13
				c0.1,1.8,0.5,3.3,1.3,4.4s2,1.6,3.7,1.6c1.6,0,2.8-0.5,3.7-1.6c0.5-0.6,0.9-1.3,1.1-2.1h3c-0.1,0.7-0.3,1.4-0.8,2.2
				c-0.4,0.8-0.9,1.5-1.5,2c-0.9,0.9-2,1.5-3.4,1.8c-0.7,0.2-1.5,0.3-2.4,0.3c-2.2,0-4.1-0.8-5.6-2.4c-1.5-1.6-2.3-3.9-2.3-6.8
				c0-2.9,0.8-5.2,2.3-7c1.5-1.8,3.6-2.7,6.1-2.7C318.4,6.9,319.6,7.2,320.8,7.8z M321.9,14.8c-0.1-1.3-0.4-2.3-0.8-3.1
				c-0.8-1.4-2.2-2.2-4.1-2.2c-1.4,0-2.5,0.5-3.4,1.5c-0.9,1-1.4,2.3-1.5,3.8H321.9z"/>
			<path class="st2" d="M329.1,7.3h3v2.5c0.7-0.9,1.4-1.5,1.9-1.9c1-0.7,2.1-1,3.4-1c1.4,0,2.6,0.3,3.4,1c0.5,0.4,0.9,1,1.3,1.8
				c0.7-1,1.5-1.7,2.4-2.1c0.9-0.5,1.9-0.7,3-0.7c2.4,0,4,0.9,4.9,2.6c0.5,0.9,0.7,2.2,0.7,3.8v11.9H350V12.7c0-1.2-0.3-2-0.9-2.5
				c-0.6-0.4-1.3-0.7-2.2-0.7c-1.2,0-2.2,0.4-3,1.2c-0.8,0.8-1.3,2.1-1.3,4v10.4h-3.1V13.5c0-1.2-0.1-2.1-0.4-2.7
				c-0.5-0.8-1.3-1.2-2.6-1.2c-1.1,0-2.2,0.4-3.1,1.3c-0.9,0.9-1.4,2.5-1.4,4.8v9.5h-3V7.3z"/>
			<path class="st2" d="M367.5,14.3c0.7-0.1,1.2-0.4,1.4-0.9c0.1-0.3,0.2-0.7,0.2-1.2c0-1-0.4-1.8-1.1-2.2s-1.8-0.7-3.1-0.7
				c-1.6,0-2.7,0.4-3.3,1.3c-0.4,0.5-0.6,1.2-0.7,2.1H358c0.1-2.2,0.8-3.7,2.1-4.6c1.4-0.9,3-1.3,4.8-1.3c2.1,0,3.8,0.4,5.1,1.2
				c1.3,0.8,1.9,2,1.9,3.7v10.3c0,0.3,0.1,0.6,0.2,0.8s0.4,0.3,0.8,0.3c0.1,0,0.3,0,0.5,0c0.2,0,0.3,0,0.5-0.1v2.2
				c-0.5,0.1-0.8,0.2-1.1,0.2c-0.2,0-0.6,0.1-1,0.1c-1,0-1.8-0.4-2.3-1.1c-0.2-0.4-0.4-0.9-0.5-1.7c-0.6,0.8-1.5,1.5-2.6,2.1
				c-1.1,0.6-2.4,0.9-3.8,0.9c-1.7,0-3-0.5-4.1-1.5c-1-1-1.6-2.3-1.6-3.8c0-1.7,0.5-2.9,1.6-3.8c1-0.9,2.4-1.5,4.1-1.7L367.5,14.3z
				 M361.1,22.4c0.6,0.5,1.4,0.7,2.3,0.7c1.1,0,2.1-0.2,3.1-0.7c1.7-0.8,2.5-2.1,2.5-4v-2.4c-0.4,0.2-0.8,0.4-1.4,0.6
				s-1.1,0.3-1.7,0.3l-1.8,0.2c-1.1,0.1-1.9,0.4-2.5,0.7c-0.9,0.5-1.4,1.4-1.4,2.5C360.2,21.3,360.5,21.9,361.1,22.4z"/>
			<path class="st2" d="M396.9,7.8c0.5,0.3,1.1,0.9,1.8,1.8v-9h2.9v24.6h-2.7v-2.5c-0.7,1.1-1.5,1.9-2.5,2.4c-1,0.5-2,0.7-3.3,0.7
				c-2,0-3.7-0.8-5.1-2.5c-1.5-1.7-2.2-3.9-2.2-6.7c0-2.6,0.7-4.9,2-6.8S391,7,393.4,7C394.8,7,395.9,7.2,396.9,7.8z M390.2,21.2
				c0.8,1.3,2.1,1.9,3.9,1.9c1.4,0,2.5-0.6,3.4-1.8c0.9-1.2,1.3-2.9,1.3-5.1c0-2.3-0.5-3.9-1.4-5s-2.1-1.6-3.4-1.6
				c-1.5,0-2.7,0.6-3.7,1.7s-1.4,2.9-1.4,5.1C389,18.3,389.4,19.9,390.2,21.2z"/>
			<path class="st2" d="M417.4,7.8c1.2,0.6,2.1,1.4,2.7,2.3c0.6,0.9,1,2,1.2,3.2c0.2,0.8,0.3,2.1,0.3,3.9h-13
				c0.1,1.8,0.5,3.3,1.3,4.4s2,1.6,3.7,1.6c1.6,0,2.8-0.5,3.7-1.6c0.5-0.6,0.9-1.3,1.1-2.1h3c-0.1,0.7-0.3,1.4-0.8,2.2
				c-0.4,0.8-0.9,1.5-1.5,2c-0.9,0.9-2,1.5-3.4,1.8c-0.7,0.2-1.5,0.3-2.4,0.3c-2.2,0-4.1-0.8-5.6-2.4c-1.5-1.6-2.3-3.9-2.3-6.8
				c0-2.9,0.8-5.2,2.3-7c1.5-1.8,3.6-2.7,6.1-2.7C415,6.9,416.2,7.2,417.4,7.8z M418.5,14.8c-0.1-1.3-0.4-2.3-0.8-3.1
				c-0.8-1.4-2.2-2.2-4.1-2.2c-1.4,0-2.5,0.5-3.4,1.5c-0.9,1-1.4,2.3-1.5,3.8H418.5z"/>
			<path class="st2" d="M438.1,17.2c0.1,1.4,0.4,2.5,0.9,3.4c1.1,1.6,2.9,2.4,5.6,2.4c1.2,0,2.3-0.2,3.3-0.5
				c1.9-0.7,2.9-1.9,2.9-3.7c0-1.3-0.4-2.3-1.2-2.9c-0.8-0.6-2.1-1-3.8-1.5l-3.2-0.8c-2.1-0.5-3.6-1-4.5-1.6c-1.5-1-2.3-2.6-2.3-4.6
				c0-2.2,0.7-4,2.2-5.4c1.5-1.4,3.6-2.1,6.3-2.1c2.5,0,4.6,0.6,6.4,1.9c1.7,1.2,2.6,3.2,2.6,5.9h-3.1c-0.2-1.3-0.5-2.3-1-3
				c-1-1.3-2.6-1.9-4.9-1.9c-1.9,0-3.2,0.4-4,1.2C439.4,4.9,439,5.9,439,7c0,1.2,0.5,2.1,1.5,2.6c0.6,0.4,2.1,0.8,4.3,1.3l3.3,0.8
				c1.6,0.4,2.8,0.9,3.7,1.6c1.5,1.1,2.3,2.8,2.3,5c0,2.7-1,4.7-2.9,5.8c-1.9,1.2-4.2,1.8-6.7,1.8c-3,0-5.3-0.8-7-2.3
				c-1.7-1.5-2.5-3.6-2.5-6.3H438.1z"/>
			<path class="st2" d="M461.7,7.3v11.9c0,0.9,0.1,1.7,0.4,2.2c0.5,1.1,1.5,1.6,2.9,1.6c2,0,3.4-0.9,4.2-2.8c0.4-1,0.6-2.4,0.6-4.1
				V7.3h3v17.9h-2.8l0-2.6c-0.4,0.7-0.9,1.3-1.4,1.7c-1.1,0.9-2.5,1.4-4.1,1.4c-2.5,0-4.2-0.9-5.1-2.6c-0.5-0.9-0.7-2.1-0.7-3.7V7.3
				H461.7z"/>
			<path class="st2" d="M477.7,7.4h2.9v2.4c0.6-0.8,1.3-1.4,2-1.9c1-0.7,2.2-1,3.6-1c2,0,3.8,0.8,5.2,2.3s2.1,3.8,2.1,6.6
				c0,3.9-1,6.7-3.1,8.3c-1.3,1.1-2.8,1.6-4.5,1.6c-1.3,0-2.5-0.3-3.4-0.9c-0.5-0.3-1.1-0.9-1.8-1.7v9.1h-3V7.4z M489,21.4
				c0.9-1.2,1.4-2.9,1.4-5.3c0-1.4-0.2-2.6-0.6-3.7c-0.8-2-2.2-3-4.3-3c-2.1,0-3.5,1-4.3,3.1c-0.4,1.1-0.6,2.5-0.6,4.2
				c0,1.4,0.2,2.6,0.6,3.5c0.8,1.8,2.2,2.8,4.3,2.8C486.9,23.1,488.1,22.5,489,21.4z"/>
			<path class="st2" d="M508.4,7.8c1.2,0.6,2.1,1.4,2.7,2.3c0.6,0.9,1,2,1.2,3.2c0.2,0.8,0.3,2.1,0.3,3.9h-13
				c0.1,1.8,0.5,3.3,1.3,4.4s2,1.6,3.7,1.6c1.6,0,2.8-0.5,3.7-1.6c0.5-0.6,0.9-1.3,1.1-2.1h3c-0.1,0.7-0.3,1.4-0.8,2.2
				c-0.4,0.8-0.9,1.5-1.5,2c-0.9,0.9-2,1.5-3.4,1.8c-0.7,0.2-1.5,0.3-2.4,0.3c-2.2,0-4.1-0.8-5.6-2.4c-1.5-1.6-2.3-3.9-2.3-6.8
				c0-2.9,0.8-5.2,2.3-7c1.5-1.8,3.6-2.7,6.1-2.7C506,6.9,507.2,7.2,508.4,7.8z M509.4,14.8c-0.1-1.3-0.4-2.3-0.8-3.1
				c-0.8-1.4-2.2-2.2-4.1-2.2c-1.4,0-2.5,0.5-3.4,1.5c-0.9,1-1.4,2.3-1.5,3.8H509.4z"/>
			<path class="st2" d="M516.7,7.3h2.9v3.1c0.2-0.6,0.8-1.3,1.7-2.2s2-1.3,3.2-1.3c0.1,0,0.2,0,0.3,0c0.1,0,0.4,0,0.7,0.1v3.2
				c-0.2,0-0.3-0.1-0.5-0.1c-0.2,0-0.3,0-0.5,0c-1.5,0-2.7,0.5-3.5,1.5c-0.8,1-1.2,2.1-1.2,3.4v10.3h-3V7.3z"/>
			<path class="st2" d="M529.8,7.3l4.8,14.5l5-14.5h3.3l-6.7,17.9H533l-6.6-17.9H529.8z"/>
			<path class="st2" d="M545.8,0.6h3.1V4h-3.1V0.6z M545.8,7.4h3.1v17.8h-3.1V7.4z"/>
			<path class="st2" d="M555.5,19.5c0.1,1,0.3,1.8,0.8,2.3c0.8,1,2.1,1.5,4,1.5c1.1,0,2.1-0.2,3-0.7s1.3-1.2,1.3-2.2
				c0-0.8-0.3-1.4-1-1.8c-0.4-0.2-1.3-0.5-2.6-0.9l-2.4-0.6c-1.5-0.4-2.7-0.8-3.4-1.3c-1.3-0.8-2-1.9-2-3.4c0-1.7,0.6-3.1,1.9-4.1
				c1.2-1,2.9-1.6,5-1.6c2.7,0,4.7,0.8,5.9,2.4c0.8,1,1.1,2.1,1.1,3.2h-2.8c-0.1-0.7-0.3-1.3-0.7-1.8c-0.7-0.8-1.9-1.2-3.7-1.2
				c-1.2,0-2,0.2-2.6,0.6s-0.9,1-0.9,1.7c0,0.8,0.4,1.4,1.2,1.9c0.5,0.3,1.1,0.5,2,0.7l2,0.5c2.2,0.5,3.7,1,4.4,1.5
				c1.2,0.8,1.8,2,1.8,3.6c0,1.6-0.6,3-1.8,4.1c-1.2,1.2-3.1,1.7-5.6,1.7c-2.7,0-4.6-0.6-5.7-1.8c-1.1-1.2-1.7-2.7-1.8-4.5H555.5z"
				/>
			<path class="st2" d="M571.1,0.6h3.1V4h-3.1V0.6z M571.1,7.4h3.1v17.8h-3.1V7.4z"/>
			<path class="st2" d="M592,9.1c1.6,1.5,2.4,3.8,2.4,6.8c0,2.9-0.7,5.3-2.1,7.1s-3.5,2.8-6.5,2.8c-2.4,0-4.4-0.8-5.8-2.5
				c-1.4-1.7-2.2-3.9-2.2-6.7c0-3,0.8-5.4,2.3-7.2c1.5-1.8,3.5-2.7,6.1-2.7C588.5,6.8,590.4,7.5,592,9.1z M590.1,20.9
				c0.7-1.5,1.1-3.2,1.1-5c0-1.7-0.3-3-0.8-4.1c-0.8-1.6-2.3-2.5-4.3-2.5c-1.8,0-3.1,0.7-4,2.1c-0.8,1.4-1.2,3.1-1.2,5.1
				c0,1.9,0.4,3.5,1.2,4.7s2.1,1.9,3.9,1.9C588.1,23.2,589.4,22.4,590.1,20.9z M589.7,0.1l-4.5,4.8H583l3.1-4.8H589.7z"/>
			<path class="st2" d="M598.4,7.3h2.9v2.5c0.8-1,1.7-1.8,2.7-2.3c0.9-0.5,2-0.7,3.2-0.7c2.5,0,4.2,0.9,5.1,2.7
				c0.5,1,0.7,2.4,0.7,4.2v11.5h-3.1V13.9c0-1.1-0.2-2-0.5-2.6c-0.5-1.1-1.5-1.7-2.9-1.7c-0.7,0-1.3,0.1-1.8,0.2
				c-0.8,0.2-1.5,0.7-2.2,1.5c-0.5,0.6-0.8,1.2-1,1.8c-0.1,0.6-0.2,1.5-0.2,2.7v9.4h-3V7.3z"/>
			<path class="st2" d="M261.3,45.4c0.5,0.3,1.1,0.9,1.8,1.8v-9h2.9v24.6h-2.7v-2.5c-0.7,1.1-1.5,1.9-2.5,2.4c-1,0.5-2,0.7-3.3,0.7
				c-2,0-3.7-0.8-5.1-2.5c-1.5-1.7-2.2-3.9-2.2-6.7c0-2.6,0.7-4.9,2-6.8s3.2-2.9,5.7-2.9C259.2,44.5,260.4,44.8,261.3,45.4z
				 M254.6,58.8c0.8,1.3,2.1,1.9,3.9,1.9c1.4,0,2.5-0.6,3.4-1.8c0.9-1.2,1.3-2.9,1.3-5.1c0-2.3-0.5-3.9-1.4-5s-2.1-1.6-3.4-1.6
				c-1.5,0-2.7,0.6-3.7,1.7s-1.4,2.9-1.4,5.1C253.4,55.9,253.8,57.5,254.6,58.8z"/>
			<path class="st2" d="M281.8,45.3c1.2,0.6,2.1,1.4,2.7,2.3c0.6,0.9,1,2,1.2,3.2c0.2,0.8,0.3,2.1,0.3,3.9h-13
				c0.1,1.8,0.5,3.3,1.3,4.4s2,1.6,3.7,1.6c1.6,0,2.8-0.5,3.7-1.6c0.5-0.6,0.9-1.3,1.1-2.1h3c-0.1,0.7-0.3,1.4-0.8,2.2
				c-0.4,0.8-0.9,1.5-1.5,2c-0.9,0.9-2,1.5-3.4,1.8c-0.7,0.2-1.5,0.3-2.4,0.3c-2.2,0-4.1-0.8-5.6-2.4c-1.5-1.6-2.3-3.9-2.3-6.8
				c0-2.9,0.8-5.2,2.3-7c1.5-1.8,3.6-2.7,6.1-2.7C279.4,44.4,280.7,44.7,281.8,45.3z M282.9,52.3c-0.1-1.3-0.4-2.3-0.8-3.1
				c-0.8-1.4-2.2-2.2-4.1-2.2c-1.4,0-2.5,0.5-3.4,1.5c-0.9,1-1.4,2.3-1.5,3.8H282.9z"/>
			<path class="st2" d="M300.1,38.2h3v24.5h-3V38.2z"/>
			<path class="st2" d="M317.5,51.9c0.7-0.1,1.2-0.4,1.4-0.9c0.1-0.3,0.2-0.7,0.2-1.2c0-1-0.4-1.8-1.1-2.2s-1.8-0.7-3.1-0.7
				c-1.6,0-2.7,0.4-3.3,1.3c-0.4,0.5-0.6,1.2-0.7,2.1H308c0.1-2.2,0.8-3.7,2.1-4.6c1.4-0.9,3-1.3,4.8-1.3c2.1,0,3.8,0.4,5.1,1.2
				c1.3,0.8,1.9,2,1.9,3.7v10.3c0,0.3,0.1,0.6,0.2,0.8s0.4,0.3,0.8,0.3c0.1,0,0.3,0,0.5,0c0.2,0,0.3,0,0.5-0.1v2.2
				c-0.5,0.1-0.8,0.2-1.1,0.2c-0.2,0-0.6,0.1-1,0.1c-1,0-1.8-0.4-2.3-1.1c-0.2-0.4-0.4-0.9-0.5-1.7c-0.6,0.8-1.5,1.5-2.6,2.1
				c-1.1,0.6-2.4,0.9-3.8,0.9c-1.7,0-3-0.5-4.1-1.5c-1-1-1.6-2.3-1.6-3.8c0-1.7,0.5-2.9,1.6-3.8c1-0.9,2.4-1.5,4.1-1.7L317.5,51.9z
				 M311.2,60c0.6,0.5,1.4,0.7,2.3,0.7c1.1,0,2.1-0.2,3.1-0.7c1.7-0.8,2.5-2.1,2.5-4v-2.4c-0.4,0.2-0.8,0.4-1.4,0.6
				s-1.1,0.3-1.7,0.3l-1.8,0.2c-1.1,0.1-1.9,0.4-2.5,0.7c-0.9,0.5-1.4,1.4-1.4,2.5C310.2,58.8,310.5,59.5,311.2,60z"/>
			<path class="st2" d="M338.2,38.2h3.4v24.5h-3.4V38.2z"/>
			<path class="st2" d="M346.9,44.8h2.9v2.5c0.8-1,1.7-1.8,2.7-2.3c0.9-0.5,2-0.7,3.2-0.7c2.5,0,4.2,0.9,5.1,2.7
				c0.5,1,0.7,2.4,0.7,4.2v11.5h-3.1V51.4c0-1.1-0.2-2-0.5-2.6c-0.5-1.1-1.5-1.7-2.9-1.7c-0.7,0-1.3,0.1-1.8,0.2
				c-0.8,0.2-1.5,0.7-2.2,1.5c-0.5,0.6-0.8,1.2-1,1.8c-0.1,0.6-0.2,1.5-0.2,2.7v9.4h-3V44.8z"/>
			<path class="st2" d="M368,57.1c0.1,1,0.3,1.8,0.8,2.3c0.8,1,2.1,1.5,4,1.5c1.1,0,2.1-0.2,3-0.7s1.3-1.2,1.3-2.2
				c0-0.8-0.3-1.4-1-1.8c-0.4-0.2-1.3-0.5-2.6-0.9l-2.4-0.6c-1.5-0.4-2.7-0.8-3.4-1.3c-1.3-0.8-2-1.9-2-3.4c0-1.7,0.6-3.1,1.9-4.1
				c1.2-1,2.9-1.6,5-1.6c2.7,0,4.7,0.8,5.9,2.4c0.8,1,1.1,2.1,1.1,3.2h-2.8c-0.1-0.7-0.3-1.3-0.7-1.8c-0.7-0.8-1.9-1.2-3.7-1.2
				c-1.2,0-2,0.2-2.6,0.6s-0.9,1-0.9,1.7c0,0.8,0.4,1.4,1.2,1.9c0.5,0.3,1.1,0.5,2,0.7l2,0.5c2.2,0.5,3.7,1,4.4,1.5
				c1.2,0.8,1.8,2,1.8,3.6c0,1.6-0.6,3-1.8,4.1c-1.2,1.2-3.1,1.7-5.6,1.7c-2.7,0-4.6-0.6-5.7-1.8c-1.1-1.2-1.7-2.7-1.8-4.5H368z"/>
			<path class="st2" d="M384.2,39.8h3v5h2.9v2.5h-2.9v11.7c0,0.6,0.2,1,0.6,1.3c0.2,0.1,0.6,0.2,1.2,0.2c0.1,0,0.3,0,0.5,0
				c0.2,0,0.4,0,0.6-0.1v2.4c-0.3,0.1-0.7,0.2-1.1,0.2c-0.4,0-0.8,0.1-1.2,0.1c-1.4,0-2.4-0.4-2.9-1.1c-0.5-0.7-0.8-1.6-0.8-2.8
				V47.3h-2.4v-2.5h2.4V39.8z"/>
			<path class="st2" d="M403,51.9c0.7-0.1,1.2-0.4,1.4-0.9c0.1-0.3,0.2-0.7,0.2-1.2c0-1-0.4-1.8-1.1-2.2s-1.8-0.7-3.1-0.7
				c-1.6,0-2.7,0.4-3.3,1.3c-0.4,0.5-0.6,1.2-0.7,2.1h-2.8c0.1-2.2,0.8-3.7,2.1-4.6c1.4-0.9,3-1.3,4.8-1.3c2.1,0,3.8,0.4,5.1,1.2
				c1.3,0.8,1.9,2,1.9,3.7v10.3c0,0.3,0.1,0.6,0.2,0.8s0.4,0.3,0.8,0.3c0.1,0,0.3,0,0.5,0c0.2,0,0.3,0,0.5-0.1v2.2
				c-0.5,0.1-0.8,0.2-1.1,0.2c-0.2,0-0.6,0.1-1,0.1c-1,0-1.8-0.4-2.3-1.1c-0.2-0.4-0.4-0.9-0.5-1.7c-0.6,0.8-1.5,1.5-2.6,2.1
				c-1.1,0.6-2.4,0.9-3.8,0.9c-1.7,0-3-0.5-4.1-1.5c-1-1-1.6-2.3-1.6-3.8c0-1.7,0.5-2.9,1.6-3.8c1-0.9,2.4-1.5,4.1-1.7L403,51.9z
				 M396.7,60c0.6,0.5,1.4,0.7,2.3,0.7c1.1,0,2.1-0.2,3.1-0.7c1.7-0.8,2.5-2.1,2.5-4v-2.4c-0.4,0.2-0.8,0.4-1.4,0.6
				s-1.1,0.3-1.7,0.3l-1.8,0.2c-1.1,0.1-1.9,0.4-2.5,0.7c-0.9,0.5-1.4,1.4-1.4,2.5C395.8,58.8,396.1,59.5,396.7,60z"/>
			<path class="st2" d="M412.9,38.2h3v24.5h-3V38.2z"/>
			<path class="st2" d="M430.3,51.9c0.7-0.1,1.2-0.4,1.4-0.9c0.1-0.3,0.2-0.7,0.2-1.2c0-1-0.4-1.8-1.1-2.2s-1.8-0.7-3.1-0.7
				c-1.6,0-2.7,0.4-3.3,1.3c-0.4,0.5-0.6,1.2-0.7,2.1h-2.8c0.1-2.2,0.8-3.7,2.1-4.6c1.4-0.9,3-1.3,4.8-1.3c2.1,0,3.8,0.4,5.1,1.2
				c1.3,0.8,1.9,2,1.9,3.7v10.3c0,0.3,0.1,0.6,0.2,0.8s0.4,0.3,0.8,0.3c0.1,0,0.3,0,0.5,0c0.2,0,0.3,0,0.5-0.1v2.2
				c-0.5,0.1-0.8,0.2-1.1,0.2c-0.2,0-0.6,0.1-1,0.1c-1,0-1.8-0.4-2.3-1.1c-0.2-0.4-0.4-0.9-0.5-1.7c-0.6,0.8-1.5,1.5-2.6,2.1
				c-1.1,0.6-2.4,0.9-3.8,0.9c-1.7,0-3-0.5-4.1-1.5c-1-1-1.6-2.3-1.6-3.8c0-1.7,0.5-2.9,1.6-3.8c1-0.9,2.4-1.5,4.1-1.7L430.3,51.9z
				 M424,60c0.6,0.5,1.4,0.7,2.3,0.7c1.1,0,2.1-0.2,3.1-0.7c1.7-0.8,2.5-2.1,2.5-4v-2.4c-0.4,0.2-0.8,0.4-1.4,0.6s-1.1,0.3-1.7,0.3
				l-1.8,0.2c-1.1,0.1-1.9,0.4-2.5,0.7c-0.9,0.5-1.4,1.4-1.4,2.5C423,58.8,423.3,59.5,424,60z"/>
			<path class="st2" d="M451.9,45.8c1.3,1,2,2.7,2.3,5.1h-2.9c-0.2-1.1-0.6-2-1.2-2.7c-0.6-0.7-1.7-1.1-3.1-1.1
				c-1.9,0-3.3,0.9-4.1,2.8c-0.5,1.2-0.8,2.7-0.8,4.5c0,1.8,0.4,3.3,1.1,4.5c0.8,1.2,1.9,1.8,3.6,1.8c1.2,0,2.2-0.4,3-1.1
				c0.7-0.8,1.2-1.8,1.5-3.1h2.9c-0.3,2.4-1.2,4.1-2.5,5.2s-3,1.6-5.1,1.6c-2.3,0-4.2-0.9-5.6-2.6c-1.4-1.7-2.1-3.8-2.1-6.4
				c0-3.1,0.8-5.6,2.3-7.3c1.5-1.7,3.5-2.6,5.8-2.6C449,44.3,450.6,44.8,451.9,45.8z"/>
			<path class="st2" d="M457.5,38.2h3.1v3.4h-3.1V38.2z M457.5,44.9h3.1v17.8h-3.1V44.9z"/>
			<path class="st2" d="M478.3,46.6c1.6,1.5,2.4,3.8,2.4,6.8c0,2.9-0.7,5.3-2.1,7.1s-3.5,2.8-6.5,2.8c-2.4,0-4.4-0.8-5.8-2.5
				c-1.4-1.7-2.2-3.9-2.2-6.7c0-3,0.8-5.4,2.3-7.2c1.5-1.8,3.5-2.7,6.1-2.7C474.8,44.3,476.8,45.1,478.3,46.6z M476.5,58.5
				c0.7-1.5,1.1-3.2,1.1-5c0-1.7-0.3-3-0.8-4.1c-0.8-1.6-2.3-2.5-4.3-2.5c-1.8,0-3.1,0.7-4,2.1c-0.8,1.4-1.2,3.1-1.2,5.1
				c0,1.9,0.4,3.5,1.2,4.7s2.1,1.9,3.9,1.9C474.4,60.7,475.8,60,476.5,58.5z M476.1,37.6l-4.5,4.8h-2.3l3.1-4.8H476.1z"/>
			<path class="st2" d="M484.7,44.8h2.9v2.5c0.8-1,1.7-1.8,2.7-2.3c0.9-0.5,2-0.7,3.2-0.7c2.5,0,4.2,0.9,5.1,2.7
				c0.5,1,0.7,2.4,0.7,4.2v11.5h-3.1V51.4c0-1.1-0.2-2-0.5-2.6c-0.5-1.1-1.5-1.7-2.9-1.7c-0.7,0-1.3,0.1-1.8,0.2
				c-0.8,0.2-1.5,0.7-2.2,1.5c-0.5,0.6-0.8,1.2-1,1.8c-0.1,0.6-0.2,1.5-0.2,2.7v9.4h-3V44.8z"/>
			<path class="st2" d="M525.1,44.8h3.3c-0.4,1.1-1.4,3.8-2.8,7.8c-1.1,3.1-2,5.6-2.7,7.5c-1.7,4.6-3,7.3-3.7,8.3
				c-0.7,1-1.9,1.5-3.7,1.5c-0.4,0-0.7,0-1,0s-0.5-0.1-0.8-0.2V67c0.5,0.1,0.9,0.2,1.1,0.3c0.2,0,0.4,0.1,0.6,0.1
				c0.6,0,1-0.1,1.2-0.3c0.3-0.2,0.5-0.4,0.7-0.7c0.1-0.1,0.3-0.5,0.6-1.4c0.3-0.8,0.6-1.4,0.7-1.8l-6.6-18.4h3.4l4.8,14.5
				L525.1,44.8z"/>
			<path class="st2" d="M561.7,41.7c1.6,2.2,2.4,4.9,2.4,8.3c0,3.7-0.9,6.7-2.8,9.1c-2.2,2.8-5.3,4.3-9.3,4.3
				c-3.8,0-6.7-1.2-8.9-3.7c-1.9-2.4-2.9-5.4-2.9-9.1c0-3.3,0.8-6.1,2.5-8.5c2.1-3,5.2-4.5,9.4-4.5
				C556.4,37.5,559.6,38.9,561.7,41.7z M558.8,57.3c1.3-2.1,2-4.5,2-7.2c0-2.9-0.8-5.2-2.3-7c-1.5-1.8-3.6-2.6-6.2-2.6
				c-2.5,0-4.6,0.9-6.2,2.6c-1.6,1.7-2.4,4.3-2.4,7.7c0,2.7,0.7,5,2.1,6.9c1.4,1.9,3.6,2.8,6.7,2.8
				C555.4,60.5,557.5,59.4,558.8,57.3z"/>
			<path class="st2" d="M567.8,44.9h2.9v2.4c0.6-0.8,1.3-1.4,2-1.9c1-0.7,2.2-1,3.6-1c2,0,3.8,0.8,5.2,2.3s2.1,3.8,2.1,6.6
				c0,3.9-1,6.7-3.1,8.3c-1.3,1.1-2.8,1.6-4.5,1.6c-1.3,0-2.5-0.3-3.4-0.9c-0.5-0.3-1.1-0.9-1.8-1.7v9.1h-3V44.9z M579.1,58.9
				c0.9-1.2,1.4-2.9,1.4-5.3c0-1.4-0.2-2.6-0.6-3.7c-0.8-2-2.2-3-4.3-3c-2.1,0-3.5,1-4.3,3.1c-0.4,1.1-0.6,2.5-0.6,4.2
				c0,1.4,0.2,2.6,0.6,3.5c0.8,1.8,2.2,2.8,4.3,2.8C577,60.7,578.2,60.1,579.1,58.9z"/>
			<path class="st2" d="M598.4,45.3c1.2,0.6,2.1,1.4,2.7,2.3c0.6,0.9,1,2,1.2,3.2c0.2,0.8,0.3,2.1,0.3,3.9h-13
				c0.1,1.8,0.5,3.3,1.3,4.4s2,1.6,3.7,1.6c1.6,0,2.8-0.5,3.7-1.6c0.5-0.6,0.9-1.3,1.1-2.1h3c-0.1,0.7-0.3,1.4-0.8,2.2
				c-0.4,0.8-0.9,1.5-1.5,2c-0.9,0.9-2,1.5-3.4,1.8c-0.7,0.2-1.5,0.3-2.4,0.3c-2.2,0-4.1-0.8-5.6-2.4c-1.5-1.6-2.3-3.9-2.3-6.8
				c0-2.9,0.8-5.2,2.3-7c1.5-1.8,3.6-2.7,6.1-2.7C596,44.4,597.2,44.7,598.4,45.3z M599.5,52.3c-0.1-1.3-0.4-2.3-0.8-3.1
				c-0.8-1.4-2.2-2.2-4.1-2.2c-1.4,0-2.5,0.5-3.4,1.5c-0.9,1-1.4,2.3-1.5,3.8H599.5z"/>
			<path class="st2" d="M606.8,44.8h2.9v3.1c0.2-0.6,0.8-1.3,1.7-2.2s2-1.3,3.2-1.3c0.1,0,0.2,0,0.3,0c0.1,0,0.4,0,0.7,0.1v3.2
				c-0.2,0-0.3-0.1-0.5-0.1c-0.2,0-0.3,0-0.5,0c-1.5,0-2.7,0.5-3.5,1.5c-0.8,1-1.2,2.1-1.2,3.4v10.3h-3V44.8z"/>
			<path class="st2" d="M628,51.9c0.7-0.1,1.2-0.4,1.4-0.9c0.1-0.3,0.2-0.7,0.2-1.2c0-1-0.4-1.8-1.1-2.2s-1.8-0.7-3.1-0.7
				c-1.6,0-2.7,0.4-3.3,1.3c-0.4,0.5-0.6,1.2-0.7,2.1h-2.8c0.1-2.2,0.8-3.7,2.1-4.6c1.4-0.9,3-1.3,4.8-1.3c2.1,0,3.8,0.4,5.1,1.2
				c1.3,0.8,1.9,2,1.9,3.7v10.3c0,0.3,0.1,0.6,0.2,0.8s0.4,0.3,0.8,0.3c0.1,0,0.3,0,0.5,0c0.2,0,0.3,0,0.5-0.1v2.2
				c-0.5,0.1-0.8,0.2-1.1,0.2c-0.2,0-0.6,0.1-1,0.1c-1,0-1.8-0.4-2.3-1.1c-0.2-0.4-0.4-0.9-0.5-1.7c-0.6,0.8-1.5,1.5-2.6,2.1
				c-1.1,0.6-2.4,0.9-3.8,0.9c-1.7,0-3-0.5-4.1-1.5c-1-1-1.6-2.3-1.6-3.8c0-1.7,0.5-2.9,1.6-3.8c1-0.9,2.4-1.5,4.1-1.7L628,51.9z
				 M621.7,60c0.6,0.5,1.4,0.7,2.3,0.7c1.1,0,2.1-0.2,3.1-0.7c1.7-0.8,2.5-2.1,2.5-4v-2.4c-0.4,0.2-0.8,0.4-1.4,0.6
				s-1.1,0.3-1.7,0.3l-1.8,0.2c-1.1,0.1-1.9,0.4-2.5,0.7c-0.9,0.5-1.4,1.4-1.4,2.5C620.7,58.8,621,59.5,621.7,60z"/>
			<path class="st2" d="M649.6,45.8c1.3,1,2,2.7,2.3,5.1h-2.9c-0.2-1.1-0.6-2-1.2-2.7c-0.6-0.7-1.7-1.1-3.1-1.1
				c-1.9,0-3.3,0.9-4.1,2.8c-0.5,1.2-0.8,2.7-0.8,4.5c0,1.8,0.4,3.3,1.1,4.5c0.8,1.2,1.9,1.8,3.6,1.8c1.2,0,2.2-0.4,3-1.1
				c0.7-0.8,1.2-1.8,1.5-3.1h2.9c-0.3,2.4-1.2,4.1-2.5,5.2s-3,1.6-5.1,1.6c-2.3,0-4.2-0.9-5.6-2.6c-1.4-1.7-2.1-3.8-2.1-6.4
				c0-3.1,0.8-5.6,2.3-7.3c1.5-1.7,3.5-2.6,5.8-2.6C646.7,44.3,648.3,44.8,649.6,45.8z"/>
			<path class="st2" d="M655.2,38.2h3.1v3.4h-3.1V38.2z M655.2,44.9h3.1v17.8h-3.1V44.9z"/>
			<path class="st2" d="M676,46.6c1.6,1.5,2.4,3.8,2.4,6.8c0,2.9-0.7,5.3-2.1,7.1s-3.5,2.8-6.5,2.8c-2.4,0-4.4-0.8-5.8-2.5
				c-1.4-1.7-2.2-3.9-2.2-6.7c0-3,0.8-5.4,2.3-7.2c1.5-1.8,3.5-2.7,6.1-2.7C672.5,44.3,674.5,45.1,676,46.6z M674.2,58.5
				c0.7-1.5,1.1-3.2,1.1-5c0-1.7-0.3-3-0.8-4.1c-0.8-1.6-2.3-2.5-4.3-2.5c-1.8,0-3.1,0.7-4,2.1c-0.8,1.4-1.2,3.1-1.2,5.1
				c0,1.9,0.4,3.5,1.2,4.7s2.1,1.9,3.9,1.9C672.1,60.7,673.4,60,674.2,58.5z M673.8,37.6l-4.5,4.8H667l3.1-4.8H673.8z"/>
			<path class="st2" d="M682.4,44.8h2.9v2.5c0.8-1,1.7-1.8,2.7-2.3c0.9-0.5,2-0.7,3.2-0.7c2.5,0,4.2,0.9,5.1,2.7
				c0.5,1,0.7,2.4,0.7,4.2v11.5h-3.1V51.4c0-1.1-0.2-2-0.5-2.6c-0.5-1.1-1.5-1.7-2.9-1.7c-0.7,0-1.3,0.1-1.8,0.2
				c-0.8,0.2-1.5,0.7-2.2,1.5c-0.5,0.6-0.8,1.2-1,1.8c-0.1,0.6-0.2,1.5-0.2,2.7v9.4h-3V44.8z"/>
			<path class="st2" d="M721.4,45.4c0.5,0.3,1.1,0.9,1.8,1.8v-9h2.9v24.6h-2.7v-2.5c-0.7,1.1-1.5,1.9-2.5,2.4c-1,0.5-2,0.7-3.3,0.7
				c-2,0-3.7-0.8-5.1-2.5c-1.5-1.7-2.2-3.9-2.2-6.7c0-2.6,0.7-4.9,2-6.8s3.2-2.9,5.7-2.9C719.3,44.5,720.5,44.8,721.4,45.4z
				 M714.7,58.8c0.8,1.3,2.1,1.9,3.9,1.9c1.4,0,2.5-0.6,3.4-1.8c0.9-1.2,1.3-2.9,1.3-5.1c0-2.3-0.5-3.9-1.4-5s-2.1-1.6-3.4-1.6
				c-1.5,0-2.7,0.6-3.7,1.7s-1.4,2.9-1.4,5.1C713.5,55.9,713.9,57.5,714.7,58.8z"/>
			<path class="st2" d="M742,45.3c1.2,0.6,2.1,1.4,2.7,2.3c0.6,0.9,1,2,1.2,3.2c0.2,0.8,0.3,2.1,0.3,3.9h-13
				c0.1,1.8,0.5,3.3,1.3,4.4s2,1.6,3.7,1.6c1.6,0,2.8-0.5,3.7-1.6c0.5-0.6,0.9-1.3,1.1-2.1h3c-0.1,0.7-0.3,1.4-0.8,2.2
				c-0.4,0.8-0.9,1.5-1.5,2c-0.9,0.9-2,1.5-3.4,1.8c-0.7,0.2-1.5,0.3-2.4,0.3c-2.2,0-4.1-0.8-5.6-2.4c-1.5-1.6-2.3-3.9-2.3-6.8
				c0-2.9,0.8-5.2,2.3-7c1.5-1.8,3.6-2.7,6.1-2.7C739.6,44.4,740.8,44.7,742,45.3z M743,52.3c-0.1-1.3-0.4-2.3-0.8-3.1
				c-0.8-1.4-2.2-2.2-4.1-2.2c-1.4,0-2.5,0.5-3.4,1.5c-0.9,1-1.4,2.3-1.5,3.8H743z"/>
			<path class="st2" d="M777.8,40c1.7,1.6,2.6,3.5,2.8,5.6h-3.2c-0.4-1.6-1.1-2.8-2.2-3.8s-2.6-1.4-4.5-1.4c-2.4,0-4.3,0.8-5.7,2.5
				c-1.5,1.7-2.2,4.3-2.2,7.8c0,2.9,0.7,5.2,2,7c1.3,1.8,3.3,2.7,5.9,2.7c2.4,0,4.2-0.9,5.5-2.8c0.7-1,1.2-2.3,1.5-3.9h3.2
				c-0.3,2.6-1.2,4.7-2.8,6.5c-1.9,2.1-4.5,3.2-7.8,3.2c-2.8,0-5.2-0.9-7.1-2.6c-2.5-2.3-3.8-5.8-3.8-10.6c0-3.6,0.9-6.6,2.8-8.9
				c2-2.5,4.9-3.8,8.5-3.8C773.7,37.5,776.1,38.3,777.8,40z"/>
			<path class="st2" d="M792.6,38.2h3.7l8.9,24.5h-3.6l-2.6-7.3h-9.6l-2.7,7.3h-3.4L792.6,38.2z M798.1,52.7l-3.8-10.8l-3.9,10.8
				H798.1z"/>
			<path class="st2" d="M823.9,38.2v2.9h-8.3v21.6h-3.4V41.1H804v-2.9H823.9z"/>
			<path class="st2" d="M827.4,38.2h9.8c3.3,0,5.9,1.2,7.7,3.6c1.6,2.2,2.5,4.9,2.5,8.3c0,2.6-0.5,5-1.4,7.1
				c-1.7,3.7-4.6,5.6-8.8,5.6h-9.8V38.2z M836.6,59.9c1.1,0,2-0.1,2.7-0.4c1.3-0.4,2.3-1.3,3.1-2.5c0.6-1,1.1-2.3,1.4-3.8
				c0.2-0.9,0.2-1.8,0.2-2.6c0-3-0.6-5.4-1.8-7.1c-1.2-1.7-3.1-2.5-5.7-2.5h-5.8v18.8H836.6z"/>
		</g>
		<g>
			<rect x="217.8" class="st2" width="3.3" height="63.4"/>
		</g>
	</g>
</g>
<g id="Capa_2">
	<g>
		<g>
			<path class="st3" d="M8.7,40.2c0.3,2,0.8,3.5,1.7,4.5c1.5,1.8,4.1,2.7,7.7,2.7c2.2,0,4-0.2,5.3-0.7c2.6-0.9,3.9-2.6,3.9-5
				c0-1.4-0.6-2.5-1.9-3.3c-1.3-0.8-3.3-1.4-6-2l-4.7-1c-4.6-1-7.8-2.1-9.5-3.3c-2.9-2-4.4-5.1-4.4-9.4c0-3.9,1.4-7.1,4.3-9.7
				c2.9-2.6,7.1-3.9,12.6-3.9c4.6,0,8.6,1.2,11.8,3.6c3.3,2.4,5,5.9,5.1,10.6h-8.7c-0.2-2.6-1.3-4.5-3.5-5.6
				c-1.5-0.7-3.3-1.1-5.4-1.1c-2.4,0-4.3,0.5-5.7,1.4c-1.4,0.9-2.1,2.3-2.1,3.9c0,1.6,0.7,2.7,2.1,3.5c0.9,0.5,2.8,1.1,5.8,1.8
				l7.6,1.8c3.3,0.8,5.8,1.8,7.5,3.2c2.6,2,3.9,5,3.9,8.9c0,4-1.5,7.3-4.6,9.9c-3.1,2.6-7.4,3.9-13,3.9c-5.7,0-10.2-1.3-13.5-3.9
				C1.6,48.3,0,44.7,0,40.2H8.7z"/>
			<path class="st3" d="M50.4,40.2c0.3,2,0.8,3.5,1.7,4.5c1.5,1.8,4.1,2.7,7.7,2.7c2.2,0,4-0.2,5.3-0.7c2.6-0.9,3.9-2.6,3.9-5
				c0-1.4-0.6-2.5-1.9-3.3c-1.3-0.8-3.3-1.4-6-2l-4.7-1c-4.6-1-7.8-2.1-9.5-3.3c-2.9-2-4.4-5.1-4.4-9.4c0-3.9,1.4-7.1,4.3-9.7
				c2.9-2.6,7.1-3.9,12.6-3.9c4.6,0,8.6,1.2,11.9,3.6c3.3,2.4,5,5.9,5.1,10.6h-8.7c-0.2-2.6-1.3-4.5-3.5-5.6
				c-1.5-0.7-3.3-1.1-5.4-1.1c-2.4,0-4.3,0.5-5.7,1.4c-1.4,0.9-2.1,2.3-2.1,3.9c0,1.6,0.7,2.7,2.1,3.5c0.9,0.5,2.8,1.1,5.8,1.8
				l7.6,1.8c3.3,0.8,5.8,1.8,7.5,3.2c2.6,2,3.9,5,3.9,8.9c0,4-1.5,7.3-4.6,9.9c-3.1,2.6-7.4,3.9-13,3.9c-5.7,0-10.2-1.3-13.5-3.9
				c-3.3-2.6-4.9-6.1-4.9-10.7H50.4z"/>
			<path class="st3" d="M93.9,53.6h-9V10.2h9V53.6z"/>
			<path class="st3" d="M137.3,49.7c-3.3,3.4-8,5.1-14.2,5.1c-6.2,0-10.9-1.7-14.2-5.1c-4.4-4.1-6.6-10.1-6.6-17.9
				c0-8,2.2-13.9,6.6-17.9c3.3-3.4,8-5.1,14.2-5.1c6.2,0,10.9,1.7,14.2,5.1c4.4,4,6.6,10,6.6,17.9C143.9,39.6,141.7,45.6,137.3,49.7
				z M131.6,43.1c2.1-2.7,3.2-6.4,3.2-11.3c0-4.9-1.1-8.6-3.2-11.3c-2.1-2.7-5-4-8.6-4c-3.6,0-6.5,1.3-8.6,4
				c-2.1,2.7-3.2,6.4-3.2,11.3c0,4.9,1.1,8.7,3.2,11.3c2.1,2.7,5,4,8.6,4C126.7,47.1,129.5,45.8,131.6,43.1z"/>
			<path class="st3" d="M156.5,14.7c3.5-3.6,7.9-5.4,13.3-5.4c7.2,0,12.5,2.4,15.9,7.2c1.8,2.7,2.8,5.4,3,8.1h-9.1
				c-0.6-2.1-1.3-3.7-2.2-4.7c-1.6-1.9-4-2.8-7.2-2.8c-3.2,0-5.8,1.3-7.7,4c-1.9,2.7-2.8,6.4-2.8,11.3c0,4.9,1,8.5,3,10.9
				c2,2.4,4.5,3.6,7.5,3.6c3.1,0,5.5-1,7.1-3.1c0.9-1.1,1.6-2.8,2.2-5h9c-0.8,4.7-2.8,8.6-6,11.5c-3.2,3-7.3,4.4-12.3,4.4
				c-6.2,0-11-2-14.6-6c-3.5-4-5.3-9.5-5.3-16.6C150.4,24.7,152.4,18.8,156.5,14.7z"/>
		</g>
		<g>
			<path class="st3" d="M254.1,17.2c0.1,1.4,0.4,2.5,1,3.4c1.1,1.6,2.9,2.4,5.6,2.4c1.2,0,2.3-0.2,3.3-0.5c1.9-0.7,2.9-1.9,2.9-3.7
				c0-1.3-0.4-2.3-1.2-2.9c-0.8-0.6-2.1-1-3.8-1.4l-3.2-0.8c-2.1-0.5-3.6-1-4.5-1.6c-1.5-1-2.3-2.6-2.3-4.6c0-2.2,0.7-4,2.2-5.4
				c1.5-1.4,3.6-2.1,6.3-2.1c2.5,0,4.6,0.6,6.4,1.9c1.7,1.2,2.6,3.2,2.6,5.9h-3.1c-0.2-1.3-0.5-2.3-1-3c-1-1.3-2.6-1.9-4.9-1.9
				c-1.9,0-3.2,0.4-4,1.2c-0.8,0.8-1.2,1.8-1.2,2.9c0,1.2,0.5,2.1,1.5,2.6c0.6,0.4,2.1,0.8,4.3,1.3l3.3,0.8c1.6,0.4,2.8,0.9,3.7,1.5
				c1.5,1.1,2.3,2.8,2.3,5c0,2.7-1,4.7-2.9,5.8c-1.9,1.2-4.2,1.8-6.7,1.8c-3,0-5.3-0.8-7-2.3c-1.7-1.5-2.5-3.6-2.5-6.3H254.1z"/>
			<path class="st3" d="M274.6,0.6h3.1V4h-3.1V0.6z M274.6,7.4h3.1v17.8h-3.1V7.4z"/>
			<path class="st3" d="M284.3,19.5c0.1,1,0.3,1.8,0.8,2.3c0.8,1,2.1,1.4,4,1.4c1.1,0,2.1-0.2,3-0.7c0.9-0.5,1.3-1.2,1.3-2.2
				c0-0.8-0.3-1.3-1-1.8c-0.4-0.2-1.3-0.5-2.6-0.9l-2.4-0.6c-1.5-0.4-2.7-0.8-3.4-1.3c-1.3-0.8-2-1.9-2-3.4c0-1.7,0.6-3.1,1.9-4.1
				c1.2-1,2.9-1.6,5-1.6c2.7,0,4.7,0.8,5.9,2.4c0.8,1,1.1,2.1,1.1,3.2h-2.8c-0.1-0.7-0.3-1.3-0.7-1.8c-0.7-0.8-1.9-1.2-3.7-1.2
				c-1.2,0-2,0.2-2.6,0.6c-0.6,0.4-0.9,1-0.9,1.7c0,0.8,0.4,1.4,1.2,1.9c0.5,0.3,1.1,0.5,2,0.7l2,0.5c2.2,0.5,3.7,1,4.4,1.5
				c1.2,0.8,1.8,2,1.8,3.6c0,1.6-0.6,3-1.8,4.1c-1.2,1.2-3.1,1.7-5.6,1.7c-2.7,0-4.6-0.6-5.7-1.8c-1.1-1.2-1.7-2.7-1.8-4.5H284.3z"
				/>
			<path class="st3" d="M300.5,2.3h3v5h2.9v2.4h-2.9v11.7c0,0.6,0.2,1,0.6,1.3c0.2,0.1,0.6,0.2,1.2,0.2c0.1,0,0.3,0,0.5,0
				c0.2,0,0.4,0,0.6-0.1v2.4c-0.3,0.1-0.7,0.2-1.1,0.2c-0.4,0-0.8,0.1-1.2,0.1c-1.4,0-2.3-0.4-2.9-1.1c-0.5-0.7-0.7-1.6-0.7-2.8V9.7
				h-2.4V7.3h2.4V2.3z"/>
			<path class="st3" d="M320.8,7.8c1.2,0.6,2.1,1.4,2.7,2.3c0.6,0.9,1,1.9,1.2,3.1c0.2,0.8,0.3,2.1,0.3,3.9h-13
				c0.1,1.8,0.5,3.3,1.3,4.4c0.8,1.1,2,1.6,3.7,1.6c1.6,0,2.8-0.5,3.7-1.6c0.5-0.6,0.9-1.3,1.1-2.1h3c-0.1,0.7-0.3,1.4-0.8,2.2
				c-0.4,0.8-0.9,1.5-1.5,2c-0.9,0.9-2,1.5-3.4,1.8c-0.7,0.2-1.5,0.3-2.4,0.3c-2.2,0-4.1-0.8-5.6-2.4c-1.5-1.6-2.3-3.9-2.3-6.8
				c0-2.9,0.8-5.2,2.3-7c1.5-1.8,3.6-2.7,6.1-2.7C318.4,6.9,319.6,7.2,320.8,7.8z M321.9,14.8c-0.1-1.3-0.4-2.3-0.8-3.1
				c-0.8-1.4-2.2-2.2-4.1-2.2c-1.4,0-2.5,0.5-3.4,1.5c-0.9,1-1.4,2.3-1.5,3.8H321.9z"/>
			<path class="st3" d="M329.1,7.3h3v2.5c0.7-0.9,1.4-1.5,1.9-1.9c1-0.7,2.1-1,3.4-1c1.4,0,2.6,0.4,3.4,1.1c0.5,0.4,0.9,1,1.3,1.8
				c0.7-1,1.4-1.7,2.3-2.1c0.9-0.5,1.9-0.7,3-0.7c2.4,0,4,0.9,4.9,2.6c0.5,0.9,0.7,2.2,0.7,3.8v11.9H350V12.7c0-1.2-0.3-2-0.9-2.5
				c-0.6-0.4-1.3-0.7-2.2-0.7c-1.2,0-2.2,0.4-3,1.2c-0.9,0.8-1.3,2.1-1.3,4v10.4h-3V13.5c0-1.2-0.1-2.1-0.4-2.7
				c-0.5-0.8-1.3-1.3-2.5-1.3c-1.1,0-2.2,0.4-3.1,1.3c-0.9,0.9-1.4,2.5-1.4,4.8v9.5h-3V7.3z"/>
			<path class="st3" d="M367.5,14.3c0.7-0.1,1.2-0.4,1.4-0.9c0.1-0.3,0.2-0.7,0.2-1.2c0-1-0.4-1.8-1.1-2.2c-0.7-0.5-1.8-0.7-3.1-0.7
				c-1.6,0-2.7,0.4-3.3,1.3c-0.4,0.5-0.6,1.2-0.7,2.1H358c0.1-2.2,0.8-3.7,2.1-4.6c1.4-0.9,3-1.3,4.8-1.3c2.1,0,3.8,0.4,5.1,1.2
				c1.3,0.8,1.9,2,1.9,3.7v10.3c0,0.3,0.1,0.6,0.2,0.8c0.1,0.2,0.4,0.3,0.8,0.3c0.1,0,0.3,0,0.5,0c0.2,0,0.3,0,0.5-0.1v2.2
				c-0.5,0.1-0.8,0.2-1.1,0.3c-0.2,0-0.6,0-1,0c-1,0-1.8-0.4-2.2-1.1c-0.2-0.4-0.4-0.9-0.5-1.6c-0.6,0.8-1.5,1.5-2.6,2.1
				c-1.1,0.6-2.4,0.9-3.8,0.9c-1.7,0-3-0.5-4.1-1.5c-1-1-1.6-2.3-1.6-3.8c0-1.7,0.5-2.9,1.5-3.8c1-0.9,2.4-1.5,4.1-1.7L367.5,14.3z
				 M361.1,22.4c0.6,0.5,1.4,0.7,2.3,0.7c1.1,0,2.1-0.2,3.1-0.7c1.7-0.8,2.5-2.1,2.5-4v-2.4c-0.4,0.2-0.8,0.4-1.4,0.6
				c-0.6,0.2-1.1,0.3-1.7,0.3l-1.8,0.2c-1.1,0.1-1.9,0.4-2.5,0.7c-0.9,0.5-1.4,1.4-1.4,2.5C360.2,21.2,360.5,21.9,361.1,22.4z"/>
			<path class="st3" d="M396.9,7.8c0.5,0.3,1.1,0.9,1.8,1.8v-9h2.9v24.6h-2.7v-2.5c-0.7,1.1-1.5,1.9-2.5,2.4c-1,0.5-2,0.7-3.3,0.7
				c-2,0-3.7-0.8-5.2-2.5c-1.4-1.7-2.2-3.9-2.2-6.7c0-2.6,0.7-4.9,2-6.8c1.3-1.9,3.2-2.9,5.7-2.9C394.8,7,395.9,7.2,396.9,7.8z
				 M390.2,21.2c0.8,1.3,2.1,1.9,3.9,1.9c1.4,0,2.5-0.6,3.4-1.8c0.9-1.2,1.3-2.9,1.3-5.1c0-2.3-0.5-3.9-1.4-5
				c-0.9-1.1-2-1.6-3.4-1.6c-1.5,0-2.7,0.6-3.7,1.7c-0.9,1.2-1.4,2.9-1.4,5.1C389,18.3,389.4,19.9,390.2,21.2z"/>
			<path class="st3" d="M417.4,7.8c1.2,0.6,2.1,1.4,2.7,2.3c0.6,0.9,1,1.9,1.2,3.1c0.2,0.8,0.3,2.1,0.3,3.9h-13
				c0.1,1.8,0.5,3.3,1.3,4.4c0.8,1.1,2,1.6,3.7,1.6c1.6,0,2.8-0.5,3.7-1.6c0.5-0.6,0.9-1.3,1.1-2.1h3c-0.1,0.7-0.3,1.4-0.8,2.2
				c-0.4,0.8-0.9,1.5-1.5,2c-0.9,0.9-2,1.5-3.4,1.8c-0.7,0.2-1.5,0.3-2.4,0.3c-2.2,0-4.1-0.8-5.6-2.4c-1.5-1.6-2.3-3.9-2.3-6.8
				c0-2.9,0.8-5.2,2.3-7c1.5-1.8,3.6-2.7,6.1-2.7C415,6.9,416.2,7.2,417.4,7.8z M418.5,14.8c-0.1-1.3-0.4-2.3-0.8-3.1
				c-0.8-1.4-2.2-2.2-4.1-2.2c-1.4,0-2.5,0.5-3.4,1.5c-0.9,1-1.4,2.3-1.5,3.8H418.5z"/>
			<path class="st3" d="M438.1,17.2c0.1,1.4,0.4,2.5,1,3.4c1.1,1.6,2.9,2.4,5.6,2.4c1.2,0,2.3-0.2,3.3-0.5c1.9-0.7,2.9-1.9,2.9-3.7
				c0-1.3-0.4-2.3-1.2-2.9c-0.8-0.6-2.1-1-3.8-1.4l-3.2-0.8c-2.1-0.5-3.6-1-4.5-1.6c-1.5-1-2.3-2.6-2.3-4.6c0-2.2,0.7-4,2.2-5.4
				c1.5-1.4,3.6-2.1,6.3-2.1c2.5,0,4.6,0.6,6.4,1.9c1.7,1.2,2.6,3.2,2.6,5.9h-3.1c-0.2-1.3-0.5-2.3-1-3c-1-1.3-2.6-1.9-4.9-1.9
				c-1.9,0-3.2,0.4-4,1.2C439.4,4.9,439,5.9,439,7c0,1.2,0.5,2.1,1.5,2.6c0.6,0.4,2.1,0.8,4.3,1.3l3.3,0.8c1.6,0.4,2.8,0.9,3.7,1.5
				c1.5,1.1,2.3,2.8,2.3,5c0,2.7-1,4.7-2.9,5.8c-1.9,1.2-4.2,1.8-6.7,1.8c-3,0-5.3-0.8-7-2.3c-1.7-1.5-2.5-3.6-2.5-6.3H438.1z"/>
			<path class="st3" d="M461.7,7.3v11.9c0,0.9,0.1,1.7,0.4,2.2c0.5,1.1,1.5,1.6,2.9,1.6c2,0,3.4-0.9,4.2-2.8c0.4-1,0.6-2.4,0.6-4.1
				V7.3h3v17.9h-2.8l0-2.6c-0.4,0.7-0.9,1.2-1.4,1.7c-1.1,0.9-2.5,1.4-4.1,1.4c-2.5,0-4.2-0.9-5.1-2.6c-0.5-0.9-0.7-2.1-0.7-3.7V7.3
				H461.7z"/>
			<path class="st3" d="M477.7,7.4h2.9v2.4c0.6-0.8,1.3-1.4,2-1.9c1-0.7,2.2-1,3.6-1c2,0,3.7,0.8,5.2,2.3c1.4,1.6,2.1,3.8,2.1,6.6
				c0,3.9-1,6.7-3.1,8.3c-1.3,1.1-2.8,1.6-4.5,1.6c-1.4,0-2.5-0.3-3.4-0.9c-0.5-0.3-1.1-0.9-1.8-1.7v9.1h-3V7.4z M489,21.4
				c0.9-1.2,1.4-2.9,1.4-5.3c0-1.4-0.2-2.6-0.6-3.7c-0.8-2-2.2-3-4.3-3c-2.1,0-3.5,1-4.3,3.1c-0.4,1.1-0.6,2.5-0.6,4.2
				c0,1.4,0.2,2.6,0.6,3.5c0.8,1.8,2.2,2.8,4.3,2.8C486.9,23.1,488.1,22.5,489,21.4z"/>
			<path class="st3" d="M508.4,7.8c1.2,0.6,2.1,1.4,2.7,2.3c0.6,0.9,1,1.9,1.2,3.1c0.2,0.8,0.3,2.1,0.3,3.9h-13
				c0.1,1.8,0.5,3.3,1.3,4.4c0.8,1.1,2,1.6,3.7,1.6c1.6,0,2.8-0.5,3.7-1.6c0.5-0.6,0.9-1.3,1.1-2.1h2.9c-0.1,0.7-0.3,1.4-0.8,2.2
				c-0.4,0.8-0.9,1.5-1.5,2c-0.9,0.9-2,1.5-3.4,1.8c-0.7,0.2-1.5,0.3-2.4,0.3c-2.2,0-4.1-0.8-5.6-2.4c-1.5-1.6-2.3-3.9-2.3-6.8
				c0-2.9,0.8-5.2,2.3-7s3.6-2.7,6.1-2.7C506,6.9,507.2,7.2,508.4,7.8z M509.4,14.8c-0.1-1.3-0.4-2.3-0.8-3.1
				c-0.8-1.4-2.2-2.2-4.1-2.2c-1.4,0-2.5,0.5-3.4,1.5c-0.9,1-1.4,2.3-1.5,3.8H509.4z"/>
			<path class="st3" d="M516.7,7.3h2.9v3.1c0.2-0.6,0.8-1.3,1.7-2.2c0.9-0.9,2-1.3,3.2-1.3c0.1,0,0.1,0,0.3,0s0.4,0,0.7,0.1v3.2
				c-0.2,0-0.3-0.1-0.5-0.1c-0.2,0-0.3,0-0.5,0c-1.5,0-2.7,0.5-3.5,1.5c-0.8,1-1.2,2.1-1.2,3.4v10.3h-3V7.3z"/>
			<path class="st3" d="M529.8,7.3l4.8,14.5l5-14.5h3.3l-6.7,17.9H533l-6.6-17.9H529.8z"/>
			<path class="st3" d="M545.8,0.6h3.1V4h-3.1V0.6z M545.8,7.4h3.1v17.8h-3.1V7.4z"/>
			<path class="st3" d="M555.5,19.5c0.1,1,0.3,1.8,0.8,2.3c0.8,1,2.1,1.4,4,1.4c1.1,0,2.1-0.2,3-0.7c0.9-0.5,1.3-1.2,1.3-2.2
				c0-0.8-0.3-1.3-1-1.8c-0.4-0.2-1.3-0.5-2.6-0.9l-2.4-0.6c-1.5-0.4-2.7-0.8-3.4-1.3c-1.3-0.8-2-1.9-2-3.4c0-1.7,0.6-3.1,1.9-4.1
				c1.2-1,2.9-1.6,5-1.6c2.7,0,4.7,0.8,5.9,2.4c0.8,1,1.1,2.1,1.1,3.2h-2.8c-0.1-0.7-0.3-1.3-0.7-1.8c-0.7-0.8-1.9-1.2-3.7-1.2
				c-1.2,0-2,0.2-2.6,0.6c-0.6,0.4-0.9,1-0.9,1.7c0,0.8,0.4,1.4,1.2,1.9c0.5,0.3,1.1,0.5,2,0.7l2,0.5c2.2,0.5,3.7,1,4.4,1.5
				c1.2,0.8,1.8,2,1.8,3.6c0,1.6-0.6,3-1.8,4.1c-1.2,1.2-3.1,1.7-5.6,1.7c-2.7,0-4.6-0.6-5.7-1.8c-1.1-1.2-1.7-2.7-1.8-4.5H555.5z"
				/>
			<path class="st3" d="M571.1,0.6h3.1V4h-3.1V0.6z M571.1,7.4h3.1v17.8h-3.1V7.4z"/>
			<path class="st3" d="M592,9.1c1.6,1.5,2.4,3.8,2.4,6.8c0,2.9-0.7,5.3-2.1,7.1c-1.4,1.9-3.5,2.8-6.5,2.8c-2.4,0-4.4-0.8-5.8-2.5
				c-1.4-1.7-2.2-3.9-2.2-6.7c0-3,0.8-5.4,2.3-7.2c1.5-1.8,3.5-2.7,6.1-2.7C588.5,6.8,590.4,7.5,592,9.1z M590.1,20.9
				c0.7-1.5,1.1-3.2,1.1-5c0-1.7-0.3-3-0.8-4.1c-0.8-1.6-2.3-2.5-4.3-2.5c-1.8,0-3.1,0.7-4,2.1c-0.8,1.4-1.2,3.1-1.2,5.1
				c0,1.9,0.4,3.5,1.2,4.7c0.8,1.3,2.1,1.9,3.9,1.9C588.1,23.2,589.4,22.4,590.1,20.9z M589.7,0.1l-4.5,4.8H583l3-4.8H589.7z"/>
			<path class="st3" d="M598.4,7.3h2.9v2.5c0.8-1,1.7-1.8,2.7-2.3c0.9-0.5,2-0.7,3.2-0.7c2.5,0,4.2,0.9,5.1,2.7
				c0.5,1,0.7,2.4,0.7,4.2v11.5h-3.1V13.9c0-1.1-0.2-2-0.5-2.6c-0.5-1.1-1.5-1.7-2.9-1.7c-0.7,0-1.3,0.1-1.8,0.2
				c-0.8,0.2-1.5,0.7-2.2,1.5c-0.5,0.6-0.8,1.2-1,1.8c-0.2,0.6-0.2,1.5-0.2,2.7v9.4h-3V7.3z"/>
			<path class="st3" d="M261.3,45.4c0.5,0.3,1.1,0.9,1.8,1.8v-9h2.9v24.6h-2.7v-2.5c-0.7,1.1-1.5,1.9-2.5,2.4c-1,0.5-2,0.7-3.3,0.7
				c-2,0-3.7-0.8-5.1-2.5c-1.5-1.7-2.2-3.9-2.2-6.7c0-2.6,0.7-4.9,2-6.8c1.3-1.9,3.2-2.9,5.7-2.9C259.2,44.5,260.4,44.8,261.3,45.4z
				 M254.6,58.8c0.8,1.3,2.1,1.9,3.9,1.9c1.4,0,2.5-0.6,3.4-1.8c0.9-1.2,1.3-2.9,1.3-5.1c0-2.3-0.5-3.9-1.4-5
				c-0.9-1.1-2.1-1.6-3.4-1.6c-1.5,0-2.7,0.6-3.7,1.7c-0.9,1.2-1.4,2.9-1.4,5.1C253.4,55.9,253.8,57.5,254.6,58.8z"/>
			<path class="st3" d="M281.8,45.3c1.2,0.6,2.1,1.4,2.7,2.3c0.6,0.9,1,1.9,1.2,3.2c0.2,0.8,0.3,2.1,0.3,3.9h-13
				c0.1,1.8,0.5,3.3,1.3,4.4c0.8,1.1,2,1.6,3.7,1.6c1.6,0,2.8-0.5,3.7-1.6c0.5-0.6,0.9-1.3,1.1-2.1h2.9c-0.1,0.7-0.3,1.4-0.8,2.2
				c-0.4,0.8-0.9,1.5-1.5,2c-0.9,0.9-2,1.5-3.4,1.8c-0.7,0.2-1.5,0.3-2.4,0.3c-2.2,0-4.1-0.8-5.6-2.4c-1.5-1.6-2.3-3.9-2.3-6.8
				c0-2.9,0.8-5.2,2.3-7c1.5-1.8,3.6-2.7,6.1-2.7C279.4,44.4,280.7,44.7,281.8,45.3z M282.9,52.3c-0.1-1.3-0.4-2.3-0.8-3.1
				c-0.8-1.4-2.2-2.2-4.1-2.2c-1.4,0-2.5,0.5-3.4,1.5c-0.9,1-1.4,2.3-1.5,3.8H282.9z"/>
			<path class="st3" d="M300.1,38.2h3v24.5h-3V38.2z"/>
			<path class="st3" d="M317.5,51.9c0.7-0.1,1.1-0.4,1.4-0.9c0.1-0.3,0.2-0.7,0.2-1.2c0-1-0.4-1.8-1.1-2.2c-0.7-0.5-1.8-0.7-3.1-0.7
				c-1.6,0-2.7,0.4-3.3,1.3c-0.4,0.5-0.6,1.2-0.7,2.1H308c0.1-2.2,0.8-3.7,2.1-4.6c1.4-0.9,3-1.3,4.8-1.3c2.1,0,3.8,0.4,5.1,1.2
				c1.3,0.8,2,2,2,3.7v10.3c0,0.3,0.1,0.6,0.2,0.8c0.1,0.2,0.4,0.3,0.8,0.3c0.1,0,0.3,0,0.4,0c0.2,0,0.3,0,0.5-0.1v2.2
				c-0.5,0.1-0.8,0.2-1.1,0.2c-0.2,0-0.6,0-1,0c-1,0-1.8-0.4-2.3-1.1c-0.2-0.4-0.4-0.9-0.5-1.6c-0.6,0.8-1.5,1.5-2.6,2.1
				c-1.1,0.6-2.4,0.9-3.8,0.9c-1.7,0-3-0.5-4.1-1.5s-1.6-2.3-1.6-3.8c0-1.7,0.5-2.9,1.6-3.8c1-0.9,2.4-1.5,4.1-1.7L317.5,51.9z
				 M311.2,60c0.6,0.5,1.4,0.7,2.2,0.7c1.1,0,2.1-0.2,3.1-0.7c1.7-0.8,2.5-2.1,2.5-4v-2.4c-0.4,0.2-0.8,0.4-1.4,0.6
				c-0.6,0.2-1.1,0.3-1.7,0.3l-1.8,0.2c-1.1,0.1-1.9,0.4-2.4,0.7c-0.9,0.5-1.4,1.4-1.4,2.5C310.2,58.8,310.5,59.5,311.2,60z"/>
			<path class="st3" d="M338.2,38.2h3.4v24.5h-3.4V38.2z"/>
			<path class="st3" d="M346.9,44.8h2.9v2.5c0.8-1,1.7-1.8,2.7-2.3c0.9-0.5,2-0.7,3.2-0.7c2.5,0,4.2,0.9,5.1,2.7
				c0.5,1,0.7,2.4,0.7,4.2v11.5h-3.1V51.4c0-1.1-0.2-2-0.5-2.6c-0.5-1.1-1.5-1.7-2.9-1.7c-0.7,0-1.3,0.1-1.8,0.2
				c-0.8,0.2-1.5,0.7-2.2,1.5c-0.5,0.6-0.8,1.2-1,1.8c-0.1,0.6-0.2,1.5-0.2,2.7v9.4h-3V44.8z"/>
			<path class="st3" d="M368,57.1c0.1,1,0.3,1.8,0.8,2.3c0.8,1,2.1,1.5,4,1.5c1.1,0,2.1-0.2,3-0.7c0.9-0.5,1.3-1.2,1.3-2.2
				c0-0.8-0.3-1.4-1-1.8c-0.4-0.2-1.3-0.5-2.6-0.8l-2.4-0.6c-1.5-0.4-2.7-0.8-3.4-1.3c-1.3-0.8-2-1.9-2-3.4c0-1.7,0.6-3.1,1.9-4.1
				c1.2-1,2.9-1.6,5-1.6c2.7,0,4.7,0.8,5.9,2.4c0.8,1,1.1,2.1,1.1,3.2h-2.8c-0.1-0.7-0.3-1.3-0.7-1.8c-0.7-0.8-1.9-1.2-3.7-1.2
				c-1.2,0-2,0.2-2.6,0.6c-0.6,0.4-0.9,1-0.9,1.7c0,0.8,0.4,1.4,1.2,1.9c0.5,0.3,1.1,0.5,2,0.7l2,0.5c2.2,0.5,3.7,1,4.4,1.5
				c1.2,0.8,1.8,2,1.8,3.6c0,1.6-0.6,3-1.8,4.1c-1.2,1.2-3.1,1.7-5.6,1.7c-2.7,0-4.6-0.6-5.7-1.8c-1.1-1.2-1.7-2.7-1.8-4.5H368z"/>
			<path class="st3" d="M384.2,39.8h3v5h2.9v2.5h-2.9v11.7c0,0.6,0.2,1,0.6,1.2c0.2,0.1,0.6,0.2,1.2,0.2c0.1,0,0.3,0,0.5,0
				c0.2,0,0.4,0,0.6-0.1v2.4c-0.3,0.1-0.7,0.2-1.1,0.2c-0.4,0-0.8,0.1-1.2,0.1c-1.4,0-2.4-0.4-2.9-1.1s-0.7-1.6-0.7-2.8V47.3h-2.4
				v-2.5h2.4V39.8z"/>
			<path class="st3" d="M403,51.9c0.7-0.1,1.1-0.4,1.4-0.9c0.1-0.3,0.2-0.7,0.2-1.2c0-1-0.4-1.8-1.1-2.2c-0.7-0.5-1.8-0.7-3.1-0.7
				c-1.6,0-2.7,0.4-3.3,1.3c-0.4,0.5-0.6,1.2-0.7,2.1h-2.8c0.1-2.2,0.8-3.7,2.1-4.6c1.4-0.9,3-1.3,4.8-1.3c2.1,0,3.8,0.4,5.1,1.2
				c1.3,0.8,2,2,2,3.7v10.3c0,0.3,0.1,0.6,0.2,0.8c0.1,0.2,0.4,0.3,0.8,0.3c0.1,0,0.3,0,0.4,0c0.2,0,0.3,0,0.5-0.1v2.2
				c-0.5,0.1-0.8,0.2-1.1,0.2c-0.2,0-0.6,0-1,0c-1,0-1.8-0.4-2.3-1.1c-0.2-0.4-0.4-0.9-0.5-1.6c-0.6,0.8-1.5,1.5-2.6,2.1
				c-1.1,0.6-2.4,0.9-3.8,0.9c-1.7,0-3-0.5-4.1-1.5c-1.1-1-1.6-2.3-1.6-3.8c0-1.7,0.5-2.9,1.6-3.8c1-0.9,2.4-1.5,4.1-1.7L403,51.9z
				 M396.7,60c0.6,0.5,1.4,0.7,2.2,0.7c1.1,0,2.1-0.2,3.1-0.7c1.7-0.8,2.5-2.1,2.5-4v-2.4c-0.4,0.2-0.8,0.4-1.4,0.6
				c-0.6,0.2-1.1,0.3-1.7,0.3l-1.8,0.2c-1.1,0.1-1.9,0.4-2.4,0.7c-0.9,0.5-1.4,1.4-1.4,2.5C395.8,58.8,396.1,59.5,396.7,60z"/>
			<path class="st3" d="M412.9,38.2h3v24.5h-3V38.2z"/>
			<path class="st3" d="M430.3,51.9c0.7-0.1,1.2-0.4,1.4-0.9c0.1-0.3,0.2-0.7,0.2-1.2c0-1-0.4-1.8-1.1-2.2c-0.7-0.5-1.8-0.7-3.1-0.7
				c-1.6,0-2.7,0.4-3.3,1.3c-0.4,0.5-0.6,1.2-0.7,2.1h-2.8c0.1-2.2,0.8-3.7,2.1-4.6c1.4-0.9,3-1.3,4.8-1.3c2.1,0,3.8,0.4,5.1,1.2
				c1.3,0.8,1.9,2,1.9,3.7v10.3c0,0.3,0.1,0.6,0.2,0.8c0.1,0.2,0.4,0.3,0.8,0.3c0.1,0,0.3,0,0.5,0c0.2,0,0.3,0,0.5-0.1v2.2
				c-0.5,0.1-0.8,0.2-1.1,0.2c-0.2,0-0.6,0-1,0c-1,0-1.8-0.4-2.2-1.1c-0.2-0.4-0.4-0.9-0.5-1.6c-0.6,0.8-1.5,1.5-2.6,2.1
				c-1.1,0.6-2.4,0.9-3.8,0.9c-1.7,0-3-0.5-4.1-1.5c-1-1-1.6-2.3-1.6-3.8c0-1.7,0.5-2.9,1.5-3.8c1-0.9,2.4-1.5,4.1-1.7L430.3,51.9z
				 M424,60c0.6,0.5,1.4,0.7,2.3,0.7c1.1,0,2.1-0.2,3.1-0.7c1.7-0.8,2.5-2.1,2.5-4v-2.4c-0.4,0.2-0.8,0.4-1.4,0.6
				c-0.6,0.2-1.1,0.3-1.7,0.3l-1.8,0.2c-1.1,0.1-1.9,0.4-2.5,0.7c-0.9,0.5-1.4,1.4-1.4,2.5C423,58.8,423.3,59.5,424,60z"/>
			<path class="st3" d="M451.9,45.8c1.3,1,2,2.7,2.3,5.1h-2.9c-0.2-1.1-0.6-2-1.2-2.7c-0.6-0.7-1.6-1.1-3.1-1.1
				c-1.9,0-3.3,0.9-4.1,2.8c-0.5,1.2-0.8,2.7-0.8,4.5c0,1.8,0.4,3.3,1.1,4.5c0.8,1.2,1.9,1.8,3.6,1.8c1.2,0,2.2-0.4,3-1.1
				c0.7-0.8,1.2-1.8,1.5-3.1h2.9c-0.3,2.4-1.2,4.1-2.5,5.2c-1.3,1.1-3,1.6-5.1,1.6c-2.3,0-4.2-0.9-5.6-2.6c-1.4-1.7-2.1-3.8-2.1-6.4
				c0-3.1,0.8-5.6,2.3-7.3c1.5-1.7,3.5-2.6,5.8-2.6C449,44.3,450.6,44.8,451.9,45.8z"/>
			<path class="st3" d="M457.5,38.2h3.1v3.4h-3.1V38.2z M457.5,44.9h3.1v17.8h-3.1V44.9z"/>
			<path class="st3" d="M478.3,46.6c1.6,1.5,2.4,3.8,2.4,6.8c0,2.9-0.7,5.3-2.1,7.1c-1.4,1.9-3.6,2.8-6.5,2.8
				c-2.4,0-4.4-0.8-5.8-2.5c-1.4-1.7-2.2-3.9-2.2-6.7c0-3,0.8-5.4,2.3-7.2c1.5-1.8,3.5-2.7,6.1-2.7
				C474.8,44.3,476.8,45.1,478.3,46.6z M476.5,58.5c0.7-1.5,1.1-3.2,1.1-5c0-1.7-0.3-3-0.8-4.1c-0.8-1.6-2.3-2.5-4.3-2.5
				c-1.8,0-3.1,0.7-4,2.1c-0.8,1.4-1.2,3.1-1.2,5.1c0,1.9,0.4,3.5,1.2,4.7c0.8,1.3,2.1,1.9,3.9,1.9C474.4,60.7,475.8,60,476.5,58.5z
				 M476.1,37.6l-4.5,4.8h-2.3l3.1-4.8H476.1z"/>
			<path class="st3" d="M484.7,44.8h2.9v2.5c0.8-1,1.7-1.8,2.7-2.3c0.9-0.5,2-0.7,3.1-0.7c2.5,0,4.2,0.9,5.1,2.7
				c0.5,1,0.7,2.4,0.7,4.2v11.5h-3.1V51.4c0-1.1-0.2-2-0.5-2.6c-0.5-1.1-1.5-1.7-2.9-1.7c-0.7,0-1.3,0.1-1.8,0.2
				c-0.8,0.2-1.5,0.7-2.2,1.5c-0.5,0.6-0.8,1.2-1,1.8c-0.2,0.6-0.2,1.5-0.2,2.7v9.4h-3V44.8z"/>
			<path class="st3" d="M525.1,44.8h3.3c-0.4,1.1-1.4,3.8-2.8,7.8c-1.1,3.1-2,5.6-2.7,7.5c-1.7,4.6-3,7.3-3.7,8.3
				c-0.7,1-1.9,1.5-3.7,1.5c-0.4,0-0.7,0-1-0.1s-0.5-0.1-0.8-0.2V67c0.5,0.1,0.9,0.2,1.1,0.3c0.2,0,0.4,0,0.6,0c0.6,0,1-0.1,1.2-0.3
				c0.3-0.2,0.5-0.4,0.7-0.7c0.1-0.1,0.3-0.5,0.6-1.4s0.6-1.4,0.7-1.8l-6.6-18.4h3.4l4.8,14.5L525.1,44.8z"/>
			<path class="st3" d="M561.7,41.7c1.6,2.2,2.4,4.9,2.4,8.3c0,3.7-0.9,6.7-2.8,9.1c-2.2,2.8-5.3,4.3-9.3,4.3
				c-3.8,0-6.7-1.2-8.9-3.7c-1.9-2.4-2.9-5.4-2.9-9.1c0-3.3,0.8-6.1,2.5-8.5c2.1-3,5.2-4.5,9.4-4.5
				C556.4,37.5,559.6,38.9,561.7,41.7z M558.8,57.3c1.3-2.1,2-4.5,2-7.2c0-2.9-0.7-5.2-2.3-7c-1.5-1.8-3.6-2.6-6.2-2.6
				c-2.5,0-4.6,0.9-6.2,2.6c-1.6,1.7-2.4,4.3-2.4,7.7c0,2.7,0.7,5,2.1,6.9c1.4,1.9,3.6,2.8,6.7,2.8
				C555.4,60.5,557.5,59.4,558.8,57.3z"/>
			<path class="st3" d="M567.8,44.9h2.9v2.4c0.6-0.8,1.3-1.4,2-1.9c1-0.7,2.2-1,3.6-1c2,0,3.8,0.8,5.2,2.3c1.4,1.5,2.1,3.8,2.1,6.6
				c0,3.9-1,6.7-3.1,8.3c-1.3,1.1-2.8,1.6-4.5,1.6c-1.4,0-2.5-0.3-3.4-0.9c-0.5-0.3-1.1-0.9-1.8-1.7v9.1h-3V44.9z M579.1,58.9
				c0.9-1.2,1.4-2.9,1.4-5.3c0-1.4-0.2-2.6-0.6-3.7c-0.8-2-2.2-3-4.3-3c-2.1,0-3.5,1-4.3,3.1c-0.4,1.1-0.6,2.5-0.6,4.2
				c0,1.4,0.2,2.5,0.6,3.5c0.8,1.8,2.2,2.8,4.3,2.8C577,60.7,578.2,60.1,579.1,58.9z"/>
			<path class="st3" d="M598.4,45.3c1.2,0.6,2.1,1.4,2.7,2.3c0.6,0.9,1,1.9,1.2,3.2c0.2,0.8,0.3,2.1,0.3,3.9h-13
				c0.1,1.8,0.5,3.3,1.3,4.4c0.8,1.1,2,1.6,3.7,1.6c1.6,0,2.8-0.5,3.7-1.6c0.5-0.6,0.9-1.3,1.1-2.1h2.9c-0.1,0.7-0.3,1.4-0.8,2.2
				c-0.4,0.8-0.9,1.5-1.5,2c-0.9,0.9-2,1.5-3.4,1.8c-0.7,0.2-1.5,0.3-2.4,0.3c-2.2,0-4.1-0.8-5.6-2.4c-1.5-1.6-2.3-3.9-2.3-6.8
				c0-2.9,0.8-5.2,2.3-7c1.5-1.8,3.6-2.7,6.1-2.7C596,44.4,597.2,44.7,598.4,45.3z M599.5,52.3c-0.1-1.3-0.4-2.3-0.8-3.1
				c-0.8-1.4-2.2-2.2-4.1-2.2c-1.4,0-2.5,0.5-3.4,1.5c-0.9,1-1.4,2.3-1.5,3.8H599.5z"/>
			<path class="st3" d="M606.8,44.8h2.8v3.1c0.2-0.6,0.8-1.3,1.7-2.2c0.9-0.9,2-1.3,3.1-1.3c0.1,0,0.2,0,0.3,0c0.1,0,0.4,0,0.7,0.1
				v3.2c-0.2,0-0.3-0.1-0.5-0.1c-0.2,0-0.3,0-0.5,0c-1.5,0-2.7,0.5-3.5,1.5c-0.8,1-1.2,2.1-1.2,3.4v10.3h-3V44.8z"/>
			<path class="st3" d="M628,51.9c0.7-0.1,1.1-0.4,1.4-0.9c0.1-0.3,0.2-0.7,0.2-1.2c0-1-0.4-1.8-1.1-2.2c-0.7-0.5-1.8-0.7-3.1-0.7
				c-1.6,0-2.7,0.4-3.3,1.3c-0.4,0.5-0.6,1.2-0.7,2.1h-2.8c0.1-2.2,0.8-3.7,2.1-4.6c1.4-0.9,3-1.3,4.8-1.3c2.1,0,3.8,0.4,5.1,1.2
				c1.3,0.8,2,2,2,3.7v10.3c0,0.3,0.1,0.6,0.2,0.8c0.1,0.2,0.4,0.3,0.8,0.3c0.1,0,0.3,0,0.4,0c0.2,0,0.3,0,0.5-0.1v2.2
				c-0.5,0.1-0.8,0.2-1.1,0.2c-0.2,0-0.6,0-1,0c-1,0-1.8-0.4-2.3-1.1c-0.2-0.4-0.4-0.9-0.5-1.6c-0.6,0.8-1.5,1.5-2.6,2.1
				c-1.1,0.6-2.4,0.9-3.8,0.9c-1.7,0-3-0.5-4.1-1.5c-1.1-1-1.6-2.3-1.6-3.8c0-1.7,0.5-2.9,1.6-3.8c1-0.9,2.4-1.5,4.1-1.7L628,51.9z
				 M621.7,60c0.6,0.5,1.4,0.7,2.2,0.7c1.1,0,2.1-0.2,3.1-0.7c1.7-0.8,2.5-2.1,2.5-4v-2.4c-0.4,0.2-0.8,0.4-1.4,0.6
				c-0.6,0.2-1.1,0.3-1.7,0.3l-1.8,0.2c-1.1,0.1-1.9,0.4-2.4,0.7c-0.9,0.5-1.4,1.4-1.4,2.5C620.7,58.8,621,59.5,621.7,60z"/>
			<path class="st3" d="M649.6,45.8c1.3,1,2,2.7,2.3,5.1h-2.9c-0.2-1.1-0.6-2-1.2-2.7c-0.6-0.7-1.6-1.1-3-1.1
				c-1.9,0-3.3,0.9-4.1,2.8c-0.5,1.2-0.8,2.7-0.8,4.5c0,1.8,0.4,3.3,1.1,4.5c0.8,1.2,1.9,1.8,3.6,1.8c1.2,0,2.2-0.4,3-1.1
				c0.7-0.8,1.2-1.8,1.5-3.1h2.9c-0.3,2.4-1.2,4.1-2.5,5.2c-1.3,1.1-3,1.6-5.1,1.6c-2.3,0-4.2-0.9-5.6-2.6c-1.4-1.7-2.1-3.8-2.1-6.4
				c0-3.1,0.8-5.6,2.3-7.3c1.5-1.7,3.5-2.6,5.8-2.6C646.7,44.3,648.3,44.8,649.6,45.8z"/>
			<path class="st3" d="M655.2,38.2h3.1v3.4h-3.1V38.2z M655.2,44.9h3.1v17.8h-3.1V44.9z"/>
			<path class="st3" d="M676,46.6c1.6,1.5,2.4,3.8,2.4,6.8c0,2.9-0.7,5.3-2.1,7.1c-1.4,1.9-3.5,2.8-6.5,2.8c-2.4,0-4.4-0.8-5.8-2.5
				c-1.4-1.7-2.2-3.9-2.2-6.7c0-3,0.8-5.4,2.3-7.2c1.5-1.8,3.5-2.7,6.1-2.7C672.5,44.3,674.5,45.1,676,46.6z M674.2,58.5
				c0.7-1.5,1.1-3.2,1.1-5c0-1.7-0.3-3-0.8-4.1c-0.8-1.6-2.3-2.5-4.3-2.5c-1.8,0-3.1,0.7-4,2.1c-0.8,1.4-1.2,3.1-1.2,5.1
				c0,1.9,0.4,3.5,1.2,4.7c0.8,1.3,2.1,1.9,3.9,1.9C672.1,60.7,673.4,60,674.2,58.5z M673.8,37.6l-4.5,4.8H667l3-4.8H673.8z"/>
			<path class="st3" d="M682.4,44.8h2.9v2.5c0.8-1,1.7-1.8,2.7-2.3c0.9-0.5,2-0.7,3.2-0.7c2.5,0,4.2,0.9,5.1,2.7
				c0.5,1,0.7,2.4,0.7,4.2v11.5h-3.1V51.4c0-1.1-0.2-2-0.5-2.6c-0.5-1.1-1.5-1.7-2.9-1.7c-0.7,0-1.3,0.1-1.8,0.2
				c-0.8,0.2-1.5,0.7-2.2,1.5c-0.5,0.6-0.8,1.2-1,1.8c-0.2,0.6-0.2,1.5-0.2,2.7v9.4h-3V44.8z"/>
			<path class="st3" d="M721.4,45.4c0.5,0.3,1.1,0.9,1.8,1.8v-9h2.9v24.6h-2.7v-2.5c-0.7,1.1-1.5,1.9-2.5,2.4c-1,0.5-2,0.7-3.3,0.7
				c-2,0-3.7-0.8-5.2-2.5c-1.4-1.7-2.2-3.9-2.2-6.7c0-2.6,0.7-4.9,2-6.8c1.3-1.9,3.2-2.9,5.7-2.9C719.3,44.5,720.5,44.8,721.4,45.4z
				 M714.7,58.8c0.8,1.3,2.1,1.9,3.9,1.9c1.4,0,2.5-0.6,3.4-1.8c0.9-1.2,1.3-2.9,1.3-5.1c0-2.3-0.5-3.9-1.4-5
				c-0.9-1.1-2-1.6-3.4-1.6c-1.5,0-2.7,0.6-3.7,1.7c-0.9,1.2-1.4,2.9-1.4,5.1C713.5,55.9,713.9,57.5,714.7,58.8z"/>
			<path class="st3" d="M742,45.3c1.2,0.6,2.1,1.4,2.7,2.3c0.6,0.9,1,1.9,1.2,3.2c0.2,0.8,0.3,2.1,0.3,3.9h-13
				c0.1,1.8,0.5,3.3,1.3,4.4c0.8,1.1,2,1.6,3.7,1.6c1.6,0,2.8-0.5,3.7-1.6c0.5-0.6,0.9-1.3,1.1-2.1h2.9c-0.1,0.7-0.3,1.4-0.8,2.2
				c-0.4,0.8-0.9,1.5-1.5,2c-0.9,0.9-2,1.5-3.4,1.8c-0.7,0.2-1.5,0.3-2.4,0.3c-2.2,0-4.1-0.8-5.6-2.4c-1.5-1.6-2.3-3.9-2.3-6.8
				c0-2.9,0.8-5.2,2.3-7c1.5-1.8,3.6-2.7,6.1-2.7C739.5,44.4,740.8,44.7,742,45.3z M743,52.3c-0.1-1.3-0.4-2.3-0.8-3.1
				c-0.8-1.4-2.2-2.2-4.1-2.2c-1.4,0-2.5,0.5-3.4,1.5c-0.9,1-1.4,2.3-1.5,3.8H743z"/>
			<path class="st3" d="M777.8,40c1.7,1.6,2.6,3.5,2.8,5.6h-3.2c-0.4-1.6-1.1-2.8-2.2-3.8c-1.1-0.9-2.6-1.4-4.5-1.4
				c-2.4,0-4.3,0.8-5.7,2.5c-1.5,1.7-2.2,4.3-2.2,7.8c0,2.9,0.7,5.2,2,7c1.3,1.8,3.3,2.7,5.9,2.7c2.4,0,4.2-0.9,5.5-2.8
				c0.7-1,1.2-2.3,1.5-3.9h3.2c-0.3,2.6-1.2,4.7-2.8,6.5c-1.9,2.1-4.5,3.2-7.8,3.2c-2.8,0-5.2-0.9-7.1-2.6
				c-2.5-2.3-3.8-5.8-3.8-10.6c0-3.6,0.9-6.6,2.8-8.9c2-2.5,4.9-3.8,8.5-3.8C773.7,37.5,776.1,38.3,777.8,40z"/>
			<path class="st3" d="M792.6,38.2h3.7l8.9,24.5h-3.6l-2.6-7.3h-9.6l-2.7,7.3h-3.4L792.6,38.2z M798.1,52.7l-3.8-10.8l-3.9,10.8
				H798.1z"/>
			<path class="st3" d="M823.9,38.2v2.9h-8.3v21.6h-3.4V41.1H804v-2.9H823.9z"/>
			<path class="st3" d="M827.4,38.2h9.8c3.3,0,5.9,1.2,7.7,3.6c1.6,2.2,2.4,4.9,2.4,8.3c0,2.6-0.5,4.9-1.4,7.1
				c-1.7,3.7-4.6,5.6-8.8,5.6h-9.8V38.2z M836.6,59.9c1.1,0,2-0.1,2.7-0.4c1.3-0.4,2.3-1.3,3.1-2.5c0.6-1,1.1-2.3,1.4-3.8
				c0.2-0.9,0.2-1.8,0.2-2.6c0-3-0.6-5.4-1.8-7.1c-1.2-1.7-3.1-2.5-5.7-2.5h-5.8v18.8H836.6z"/>
		</g>
		<g>
			<rect x="217.8" y="0" class="st3" width="3.3" height="63.4"/>
		</g>
	</g>
</g>
</svg>
